<?xml version="1.0" standalone="no"?>
<!DOCTYPE svg PUBLIC "-//W3C//DTD SVG 1.1//EN" "http://www.w3.org/Graphics/SVG/1.1/DTD/svg11.dtd" >
<svg xmlns="http://www.w3.org/2000/svg">
<metadata></metadata>
<defs>
<font id="btmediumregular" horiz-adv-x="1163" >
<font-face units-per-em="2048" ascent="1638" descent="-410" />
<missing-glyph horiz-adv-x="512" />
<glyph horiz-adv-x="2048" />
<glyph horiz-adv-x="2048" />
<glyph unicode="&#xd;" horiz-adv-x="1024" />
<glyph unicode=" "  horiz-adv-x="512" />
<glyph unicode="&#x09;" horiz-adv-x="512" />
<glyph unicode="&#xa0;" horiz-adv-x="512" />
<glyph unicode="!" horiz-adv-x="651" d="M188 104q0 28 11 53.5t29.5 44t43.5 29.5t54 11q28 0 53 -11t43.5 -29.5t29.5 -44t11 -53.5t-11 -53t-29.5 -43.5t-43.5 -29.5t-53 -11q-29 0 -54 11t-43.5 29.5t-29.5 43.5t-11 53zM211 1524h229l-41 -1051h-147z" />
<glyph unicode="&#x22;" horiz-adv-x="1036" d="M201 1524h221l-37 -627h-147zM614 1524h222l-37 -627h-148z" />
<glyph unicode="#" horiz-adv-x="1073" d="M70 446v129h159l37 351h-160v129h175l49 446h135l-49 -446h307l49 446h135l-49 -446h146v-129h-160l-37 -351h160v-129h-174l-50 -446h-135l49 446h-307l-49 -446h-135l49 446h-145zM365 575h307l37 351h-308z" />
<glyph unicode="$" d="M104 102l39 152q70 -35 157.5 -58t203.5 -28v530l-123 60q-41 19 -84 46t-78 67.5t-57.5 98t-22.5 138.5q0 70 20.5 133t64.5 113t113 85.5t167 51.5v199h110v-197q113 -8 191.5 -29t140.5 -49l-39 -137q-52 26 -124 45.5t-169 26.5v-504l129 -58q73 -32 121.5 -75 t77.5 -92.5t41 -102.5t12 -106q0 -36 -6 -72.5t-16.5 -69.5t-25.5 -62t-34 -50q-47 -54 -117.5 -89t-181.5 -55v-235h-110v231q-65 3 -124.5 11.5t-110.5 21t-93 28t-72 31.5zM315 1118q0 -32 9.5 -62t31 -58.5t58 -55.5t90.5 -51v450q-101 -27 -145 -84t-44 -139zM614 180 q52 18 88 39.5t58.5 48.5t32.5 59.5t10 73.5q0 82 -45 144.5t-144 107.5v-473z" />
<glyph unicode="%" horiz-adv-x="1745" d="M70 1098q0 117 27 198t71.5 131.5t100 73.5t112.5 23q56 0 111 -23t99 -73.5t71.5 -131.5t27.5 -198t-27.5 -198t-71.5 -132t-99 -73.5t-111 -22.5q-57 0 -112.5 22.5t-100 73.5t-71.5 132t-27 198zM231 1098q0 -79 11.5 -138t32 -98t47.5 -58.5t59 -19.5q34 0 61.5 22 t46.5 63t29 99t10 130q0 80 -11 139t-30.5 97.5t-46.5 57.5t-59 19q-68 0 -109 -80.5t-41 -232.5zM406 2l770 1522h163l-770 -1522h-163zM1055 393q0 117 27 198t71.5 132t100 73.5t112.5 22.5q56 0 111.5 -22.5t99.5 -73.5t71 -132t27 -198t-27 -198t-71 -131.5 t-99.5 -73.5t-111.5 -23q-57 0 -112.5 23t-100 73.5t-71.5 131.5t-27 198zM1217 393q0 -79 11.5 -138t31.5 -98t47 -58t59 -19q34 0 61.5 22t46.5 63t29 99t10 129q0 80 -11 139t-30.5 98t-46.5 58t-59 19q-68 0 -108.5 -80.5t-40.5 -233.5z" />
<glyph unicode="&#x26;" horiz-adv-x="1599" d="M125 434q0 102 24 176.5t70.5 127.5t113.5 87.5t154 57.5q-36 57 -58.5 102.5t-34.5 82.5t-16.5 68.5t-4.5 61.5q0 23 5 52.5t17 60.5t31.5 60.5t48.5 53.5q47 39 108.5 57.5t149.5 18.5q71 0 153.5 -26t160.5 -74l-60 -127q-52 34 -113 58t-139 24q-38 0 -69.5 -11.5 t-55 -32.5t-36.5 -51t-13 -67q0 -42 10.5 -77.5t30.5 -71.5t49.5 -75t67.5 -87l360 -465q10 34 17.5 64t13 62.5t8 69t2.5 82.5q0 50 -3 97.5t-11 107.5h360v-139h-184v-76q0 -99 -22.5 -207t-71.5 -207l123 -143q15 -17 34 -34.5t50 -43.5l-162 -82q-17 11 -32 23.5t-32 31 t-39 45t-53 64.5q-107 -86 -216 -123t-226 -37q-125 0 -221.5 38t-161.5 104q-62 63 -94.5 146t-32.5 173zM315 459q0 -73 24.5 -133t69 -102.5t105.5 -65.5t135 -23q110 0 188.5 32.5t141.5 92.5l-399 506q-265 -43 -265 -307z" />
<glyph unicode="'" horiz-adv-x="627" d="M203 1524h221l-37 -627h-147z" />
<glyph unicode="(" horiz-adv-x="592" d="M119 575q0 124 17 243.5t52 238.5t88.5 239.5t126.5 245.5l129 -80q-51 -101 -89 -211t-63.5 -223t-38 -227.5t-13.5 -225.5q-1 -107 11.5 -220t38 -225.5t64.5 -222t90 -210.5l-129 -78q-73 125 -126.5 245.5t-88.5 238.5t-52 235t-17 237z" />
<glyph unicode=")" horiz-adv-x="592" d="M59 -303q52 101 90.5 210.5t64.5 222t38.5 225.5t11.5 220q-1 111 -13.5 225.5t-38 227.5t-63.5 223t-90 211l129 80q73 -125 126.5 -245.5t89 -239.5t52.5 -238.5t17 -243.5q0 -120 -17 -237t-52.5 -235t-89 -238.5t-126.5 -245.5z" />
<glyph unicode="*" horiz-adv-x="788" d="M70 1219l59 180l213 -115l-43 240h193l-43 -238l210 115l60 -180l-240 -31l176 -172l-155 -113l-105 223l-106 -221l-154 113l174 168z" />
<glyph unicode="+" d="M90 682v143h420v441h145v-441h420v-143h-420v-449h-145v449h-420z" />
<glyph unicode="," horiz-adv-x="651" d="M176 106q0 31 11 56t29.5 43t43.5 27.5t53 9.5t55 -12t48 -37.5t34 -64.5t13 -93q0 -56 -15 -111.5t-41 -106.5t-61 -96t-76 -80l-80 71q22 25 43.5 54t39 61.5t28 68t12.5 74.5q-29 0 -55 10.5t-45 27.5q-37 37 -37 98z" />
<glyph unicode="-" horiz-adv-x="686" d="M92 414v172h502v-172h-502z" />
<glyph unicode="." horiz-adv-x="651" d="M188 104q0 28 11 53.5t29.5 44t43.5 29.5t54 11q28 0 53 -11t43.5 -29.5t29.5 -44t11 -53.5t-11 -53t-29.5 -43.5t-43.5 -29.5t-53 -11q-29 0 -54 11t-43.5 29.5t-29.5 43.5t-11 53z" />
<glyph unicode="/" horiz-adv-x="633" d="M8 0l469 1524h148l-469 -1524h-148z" />
<glyph unicode="0" d="M70 745q0 212 43.5 360.5t115 241.5t163.5 135t190 42t190.5 -42t164 -135t114.5 -241.5t43 -360.5q0 -213 -43 -361t-114.5 -240.5t-164 -134.5t-190.5 -42t-190 42t-163.5 134.5t-115 240.5t-43.5 361zM266 745q0 -154 22 -270t63.5 -194t100 -117t130.5 -39 q73 0 131 39t99 117t63 194t22 270t-21.5 270t-62.5 194t-99.5 117.5t-131.5 39.5q-72 0 -130.5 -39.5t-100 -117.5t-63.5 -194t-22 -270z" />
<glyph unicode="1" d="M231 1231v162l471 118v-1355h246v-156h-676v156h246v1142z" />
<glyph unicode="2" d="M88 0v129l401 408q66 67 122.5 136t98 140t65.5 143t24 144q0 61 -19.5 109t-55.5 81t-87 50.5t-115 17.5q-54 0 -99.5 -15t-82.5 -39t-65.5 -52.5t-47.5 -55.5l-110 102q27 37 67 77t95 73t127 54.5t163 21.5q97 0 175.5 -33t134 -88.5t86 -128.5t30.5 -152 q0 -81 -18.5 -161t-62.5 -165t-116 -177.5t-180 -198.5l-256 -254h650v-166h-924z" />
<glyph unicode="3" d="M94 63l35 158q18 -11 49.5 -26t74.5 -29.5t97 -24.5t119 -10q85 0 149 22t106.5 63t63.5 100t21 133q0 71 -20 128t-58 97q-42 43 -107.5 65.5t-156.5 22.5q-34 0 -59.5 -1t-53.5 -3v143l381 434h-602v156h830v-127l-406 -465q97 -4 168 -28.5t120 -61.5t79.5 -83.5 t47.5 -95.5t23 -96t6 -85q0 -119 -38.5 -209t-106.5 -150.5t-161.5 -91.5t-202.5 -31q-64 0 -118.5 7.5t-102.5 20.5t-91.5 30.5t-85.5 37.5z" />
<glyph unicode="4" d="M119 354v191l549 946h186l-561 -983h436v268l180 101v-369h131v-154h-131v-354h-180v354h-610z" />
<glyph unicode="5" d="M106 47l41 156q76 -34 153 -53t153 -19q170 0 259 85.5t89 262.5q0 78 -23.5 135.5t-72.5 104.5q-47 45 -123 64.5t-164 19.5q-48 0 -106 -4.5t-119 -12.5l55 705h694v-156h-551l-31 -381l66 2q155 5 266.5 -32t179.5 -111q119 -128 119 -338q0 -130 -40.5 -225.5 t-108.5 -158.5t-156.5 -93.5t-185.5 -30.5q-110 0 -212.5 23t-181.5 57z" />
<glyph unicode="6" d="M131 635q0 193 44.5 356t131.5 281.5t215 185t295 66.5q37 0 63.5 -1.5t49.5 -6.5l-15 -142q-15 2 -34.5 3t-36.5 1q-104 0 -187.5 -31t-146 -96.5t-104 -168t-62.5 -246.5q34 34 68.5 59.5t73.5 41.5t84 24t100 8q77 0 142.5 -28t115.5 -79q62 -63 96.5 -158.5 t34.5 -222.5q0 -137 -37 -234t-99.5 -159.5t-146 -91.5t-176.5 -29q-110 0 -197 38t-147.5 119t-92.5 207.5t-32 303.5zM330 479q0 -83 17.5 -151t52 -116t85 -74.5t115.5 -26.5q72 0 123.5 30.5t84.5 80t48.5 113.5t15.5 132q0 97 -21.5 167t-62.5 114q-35 37 -80.5 54 t-107.5 17q-64 0 -114 -25.5t-84.5 -71t-53 -108t-18.5 -135.5z" />
<glyph unicode="7" d="M147 1331v170h863v-143l-406 -1012q-31 -78 -47 -147.5t-16 -112.5q0 -22 1 -39t3 -33l-211 -34v18q0 81 24 169.5t64 188.5l397 975h-672z" />
<glyph unicode="8" d="M78 371q0 75 21.5 135.5t65.5 112.5t110.5 97t156.5 89q-140 87 -203 178.5t-63 194.5q0 66 24 124t70 103q56 54 141 85.5t197 31.5q105 0 187.5 -21t140 -62.5t88 -103.5t30.5 -145q0 -46 -12 -93.5t-44.5 -95.5t-89 -94.5t-146.5 -91.5q108 -65 173 -123t100.5 -112.5 t46.5 -106t11 -102.5q0 -202 -129.5 -304t-371.5 -102q-102 0 -193.5 24t-160.5 74t-109.5 126.5t-40.5 181.5zM279 369q0 -62 18 -106t49 -75q45 -42 107 -58.5t131 -16.5q78 0 135 19t92 54q34 34 50 79.5t16 101.5q0 46 -12.5 88.5t-46.5 86.5t-94 90.5t-155 100.5 q-84 -41 -139.5 -80.5t-89 -82.5t-47.5 -92t-14 -109zM348 1178q0 -46 18 -83t52.5 -70.5t84 -65.5t113.5 -68q64 31 111 63t77.5 67.5t45 75t14.5 87.5q0 85 -47 135q-34 35 -86.5 52.5t-120.5 17.5q-71 0 -125 -17.5t-86 -52.5q-24 -26 -37.5 -60.5t-13.5 -80.5z" />
<glyph unicode="9" d="M98 1010q0 106 26.5 200t83 163.5t144 110t209.5 40.5q118 0 205 -47t143 -133t83.5 -207.5t27.5 -270.5q0 -150 -21 -268t-58 -209t-86 -158t-104.5 -114t-115 -76t-117 -45.5t-109.5 -22.5t-94 -6t-67.5 1t-40.5 3l14 148q17 -2 39 -3t47 -1q40 0 88 8t98.5 29.5 t99.5 59.5t91 98t74 145t47 200q-35 -35 -69.5 -60t-71 -41t-76.5 -23t-86 -7q-88 0 -150 23.5t-108 68.5q-63 60 -104.5 159t-41.5 235zM285 1030q0 -79 18 -145t52.5 -113t84.5 -73.5t113 -26.5q64 0 114 27t83.5 73.5t51 110t17.5 135.5q0 83 -17 151t-50 116t-83 74.5 t-116 26.5q-72 0 -122.5 -30.5t-83 -80.5t-47.5 -114t-15 -131z" />
<glyph unicode=":" horiz-adv-x="651" d="M188 104q0 28 11 53.5t29.5 44t43.5 29.5t54 11q28 0 53 -11t43.5 -29.5t29.5 -44t11 -53.5t-11 -53t-29.5 -43.5t-43.5 -29.5t-53 -11q-29 0 -54 11t-43.5 29.5t-29.5 43.5t-11 53zM188 885q0 28 11 53t29.5 44t43.5 29.5t54 10.5q28 0 53 -10.5t43.5 -29.5t29.5 -44 t11 -53q0 -29 -11 -53.5t-29.5 -43.5t-43.5 -29.5t-53 -10.5q-29 0 -54 10.5t-43.5 29.5t-29.5 43.5t-11 53.5z" />
<glyph unicode=";" horiz-adv-x="651" d="M176 106q0 31 11 56t29.5 43t43.5 27.5t53 9.5t55 -12t48 -37.5t34 -64.5t13 -93q0 -57 -15 -112.5t-41 -106.5t-61 -96t-76 -80l-80 71q22 25 43.5 54t39 61.5t28 68t12.5 74.5q-29 0 -55 10.5t-45 28.5q-37 37 -37 98zM188 885q0 28 11 53t29.5 44t43.5 29.5t54 10.5 q28 0 53 -10.5t43.5 -29.5t29.5 -44t11 -53q0 -29 -11 -53.5t-29.5 -43.5t-43.5 -29.5t-53 -10.5q-29 0 -54 10.5t-43.5 29.5t-29.5 43.5t-11 53.5z" />
<glyph unicode="&#x3c;" d="M131 686v135l903 445v-154l-735 -358l735 -367v-154z" />
<glyph unicode="=" d="M131 446v144h903v-144h-903zM131 911v144h903v-144h-903z" />
<glyph unicode="&#x3e;" d="M131 233v154l735 367l-735 358v154l903 -445v-135z" />
<glyph unicode="?" horiz-adv-x="901" d="M78 1434q52 37 100 61t93 37.5t89 18.5t89 5q76 0 139 -23t108.5 -63t71 -95.5t25.5 -119.5q0 -61 -12.5 -111t-36 -93t-56.5 -81.5t-74 -76.5q-40 -38 -73.5 -72t-57.5 -67.5t-37.5 -67.5t-13.5 -70q0 -29 7 -59.5t18 -64.5l-152 -27q-18 56 -26.5 97.5t-8.5 78.5 q0 66 24.5 119.5t62 99.5t80.5 88t80.5 86t62 93.5t24.5 109.5q0 42 -15 74.5t-41.5 55t-62.5 34.5t-79 12q-44 0 -80.5 -8t-68.5 -21t-60.5 -30t-55.5 -35zM248 104q0 28 10.5 53.5t29.5 44t43.5 29.5t53.5 11q28 0 53 -11t44 -29.5t29.5 -44t10.5 -53.5t-10.5 -53 t-29.5 -43.5t-44 -29.5t-53 -11q-29 0 -53.5 11t-43.5 29.5t-29.5 43.5t-10.5 53z" />
<glyph unicode="@" horiz-adv-x="1784" d="M119 641q0 201 56.5 358.5t162.5 278.5q59 66 132.5 117.5t157 86.5t175.5 53.5t190 18.5q147 0 270.5 -37t213 -111.5t139 -186.5t49.5 -261q0 -140 -43 -263.5t-131 -211.5q-51 -52 -119.5 -82t-154.5 -30q-42 0 -74 6t-58.5 19.5t-48.5 36t-43 56.5q-30 -30 -58 -52.5 t-58.5 -37t-65.5 -21.5t-78 -7q-24 0 -47 5t-44.5 14t-39.5 21t-31 25q-27 28 -45 74t-18 106q0 39 2 69t5.5 56t9 49t12.5 48q7 23 18.5 50.5t27 56t34 55.5t38.5 49q48 52 113 83t152 31q26 0 49 -4.5t46 -15.5t47.5 -29t53.5 -45l14 70l160 12l-119 -461 q-12 -44 -16 -66.5t-4 -37.5q0 -42 21 -64t69 -22q34 0 69.5 16.5t61.5 42.5q59 62 94 161t35 232q0 114 -34 198.5t-98.5 140t-156.5 83t-208 27.5q-174 0 -306 -60t-220.5 -164t-133.5 -243.5t-45 -298.5q0 -135 42.5 -233t119.5 -161.5t185 -94.5t239 -31q83 0 150.5 6.5 t126.5 18t114 28t113 37.5l51 -146q-74 -25 -139 -43.5t-130.5 -30.5t-135.5 -18t-154 -6q-184 0 -335.5 49t-250.5 152q-84 85 -130 206t-46 273zM684 641q0 -31 6.5 -57.5t21 -46t36.5 -30.5t53 -11q49 0 87 24.5t66.5 64.5t49 90.5t35.5 102.5t25 100.5t19 84.5 q-34 47 -68.5 65.5t-80.5 18.5q-45 0 -80.5 -17.5t-63 -48t-48.5 -73t-37 -93.5q-11 -31 -16 -77.5t-5 -96.5z" />
<glyph unicode="A" horiz-adv-x="1290" d="M0 0l524 1524h230l536 -1524h-207l-116 340h-666l-115 -340h-186zM354 498h557l-282 815z" />
<glyph unicode="B" horiz-adv-x="1253" d="M170 0v1524q33 1 69 2.5t84 3t112.5 2t154.5 0.5q99 0 172.5 -16.5t126 -44.5t86.5 -65t53.5 -78.5t27 -84.5t7.5 -82q0 -118 -52 -200.5t-151 -139.5q79 -24 134.5 -61t91 -88t51.5 -116t16 -146q0 -85 -29 -161t-90 -133.5t-156 -91.5t-227 -34q-155 0 -278 3.5 t-203 6.5zM360 154q47 -2 80.5 -3.5t63.5 -3t62 -2.5q16 0 35 -0.5t42 0.5q153 2 224 77t71 220q0 74 -24.5 128t-67.5 89.5t-101.5 52.5t-126.5 17h-53h-57q-30 0 -66 -0.5t-82 -1.5v-573zM360 891q44 -2 72 -2.5t52 -1t49 -0.5h63q58 0 108 13.5t86.5 42.5t57 75.5 t20.5 111.5q0 66 -19.5 112.5t-55.5 76t-87 43.5t-114 14q-29 0 -52 -0.5t-48 -1t-56 -2t-76 -2.5v-479z" />
<glyph unicode="C" horiz-adv-x="1307" d="M119 770q0 187 52 333t142.5 246.5t214 153.5t267.5 53q82 0 150.5 -11t125.5 -31t102.5 -47.5t81.5 -59.5l-96 -143q-81 66 -168 95.5t-178 29.5q-118 0 -207.5 -49.5t-149.5 -134t-90 -198t-30 -241.5q0 -171 40 -290t107 -193t153.5 -107t178.5 -33q85 0 172 25.5 t189 75.5l77 -156q-31 -19 -79 -40.5t-109.5 -39.5t-134 -29.5t-150.5 -11.5q-148 0 -270 54.5t-209 157.5t-134.5 252t-47.5 339z" />
<glyph unicode="D" horiz-adv-x="1499" d="M170 0v1524q61 3 168 5.5t276 2.5q168 0 308.5 -42.5t242 -132.5t158.5 -230t57 -334q0 -213 -56.5 -365t-154 -249.5t-228 -143t-277.5 -45.5q-62 0 -132 1t-137.5 2.5t-126.5 3t-98 3.5zM365 160q35 -2 66.5 -3t62.5 -2.5t64.5 -2t72.5 -0.5q142 0 243 49t165 134 t94 198.5t30 242.5q0 138 -34.5 248t-105.5 187t-178.5 118t-254.5 41q-31 0 -57.5 -1t-53 -2.5t-54 -3.5t-60.5 -5v-1198z" />
<glyph unicode="E" horiz-adv-x="1116" d="M170 0v1524h852v-162h-655v-473h567v-164h-567v-563h698v-162h-895z" />
<glyph unicode="F" horiz-adv-x="1014" d="M170 0v1524h784v-162h-587v-490h522v-163h-522v-709h-197z" />
<glyph unicode="G" horiz-adv-x="1448" d="M119 762q0 139 26 251.5t72.5 201t111 153t141.5 106t164 62t179 20.5q99 0 178 -16.5t137.5 -39t97.5 -47t58 -40.5l-94 -145q-29 22 -68 43.5t-86 38t-101.5 26.5t-115.5 10q-106 0 -184 -31.5t-133 -86.5q-84 -87 -125 -216t-41 -290q0 -131 28 -244.5t84 -197.5 t141.5 -132.5t201.5 -48.5q61 0 106.5 2.5t84 8.5t73 16t73.5 24v416h-219v160h414v-705q-48 -21 -109.5 -38t-132 -29.5t-145.5 -19.5t-150 -7q-134 0 -254.5 46t-212.5 142.5t-146 247t-54 359.5z" />
<glyph unicode="H" horiz-adv-x="1475" d="M170 0v1524h197v-604h741v604h197v-1524h-197v743h-741v-743h-197z" />
<glyph unicode="I" horiz-adv-x="541" d="M170 0v1524h201v-1524h-201z" />
<glyph unicode="J" horiz-adv-x="842" d="M8 31l49 162q48 -23 99.5 -39.5t124.5 -16.5q46 0 86.5 11.5t71 40t48 76.5t17.5 122v1137h196v-1139q0 -201 -98 -309.5t-299 -108.5q-94 0 -169.5 20.5t-125.5 43.5z" />
<glyph unicode="K" horiz-adv-x="1292" d="M170 2v1522h197v-660l661 660h234l-693 -690l564 -619q35 -38 80.5 -80.5t99.5 -87.5l-195 -76q-46 28 -97 79.5t-110 117.5l-544 614v-780h-197z" />
<glyph unicode="L" horiz-adv-x="1077" d="M170 0v1524h197v-1362h661v-162h-858z" />
<glyph unicode="M" horiz-adv-x="1712" d="M170 0v1524h205l481 -848l481 848h205v-1524h-188v1208l-461 -817h-86l-449 803v-1194h-188z" />
<glyph unicode="N" horiz-adv-x="1444" d="M170 0v1524h213l700 -1225v1225h191v-1524h-213l-701 1219v-1219h-190z" />
<glyph unicode="O" horiz-adv-x="1573" d="M119 762q0 209 54 359t146 247t212.5 142.5t254.5 45.5t255 -45.5t213 -142.5t146 -247t54 -359t-54 -359.5t-146 -247t-213 -142.5t-255 -46t-254.5 46t-212.5 142.5t-146 247t-54 359.5zM334 762q0 -127 27 -241.5t83 -201t141 -137.5t201 -51t201.5 51t141.5 137.5 t83 201t27 241.5t-27 241.5t-83 201t-141.5 137.5t-201.5 51t-201 -51t-141 -137.5t-83 -201t-27 -241.5z" />
<glyph unicode="P" horiz-adv-x="1186" d="M170 0v1524q37 1 79.5 2.5t97 3t123 2t157.5 0.5q130 0 223.5 -34t154.5 -93.5t90 -140.5t29 -174q0 -102 -31.5 -188t-90.5 -148.5t-143.5 -97.5t-190.5 -35q-52 0 -90.5 1t-73 3.5t-68.5 7t-76 12.5v-645h-190zM360 803q72 -13 132 -18t112 -5q78 0 137 21t99.5 61 t61 97t20.5 128q0 72 -23 126t-65 90t-100.5 53.5t-129.5 17.5q-60 0 -118.5 -2.5t-125.5 -5.5v-563z" />
<glyph unicode="Q" horiz-adv-x="1573" d="M119 762q0 209 54 359t146 247t212.5 142.5t254.5 45.5t255 -45.5t213 -142.5t146 -247t54 -359q0 -119 -17.5 -217.5t-50.5 -179.5t-79 -144.5t-103 -111.5q56 -70 114.5 -125t127.5 -97l-162 -84q-47 26 -104 76t-127 139q-123 -51 -267 -51q-134 0 -254.5 46 t-212.5 142.5t-146 247t-54 359.5zM334 762q0 -127 27 -241.5t83 -201t141 -137.5t201 -51q45 0 84 7.5t74 21.5l-186 243l139 105l190 -244q39 44 67.5 99t47 119t28 134.5t9.5 145.5q0 127 -27 241.5t-83 201t-141.5 137.5t-201.5 51t-201 -51t-141 -137.5t-83 -201 t-27 -241.5z" />
<glyph unicode="R" horiz-adv-x="1280" d="M170 2v1522q36 1 76 2.5t91.5 3t118 2t154.5 0.5q130 0 224.5 -33t155 -91t89.5 -137t29 -171q0 -146 -65 -255.5t-205 -180.5l274 -453q28 -46 63.5 -87t69.5 -73l-182 -78q-34 26 -77 82.5t-85 130.5l-252 453q-35 0 -72 1t-74.5 3t-74 6t-68.5 10v-657h-190zM360 815 q36 -6 66 -9.5t59 -5.5t58 -2.5t63 -0.5q80 0 136.5 24.5t92.5 66t53 96t17 114.5q0 129 -79.5 202.5t-233.5 73.5q-38 0 -63.5 -0.5t-49.5 -2t-51.5 -3t-67.5 -2.5v-551z" />
<glyph unicode="S" horiz-adv-x="1112" d="M70 68l51 161q80 -40 174.5 -66t198.5 -26q72 0 131 15t100.5 46t64.5 79t23 114q0 61 -23 106.5t-60 78.5t-83 57t-92 43l-143 59q-47 19 -81.5 38.5t-59.5 38t-43 35.5t-31 32q-42 44 -64 105.5t-22 158.5q0 87 29 162t87 131t145.5 88t205.5 32q62 0 117.5 -7t105 -19 t93 -27.5t81.5 -32.5l-51 -151q-65 31 -147 52.5t-169 21.5q-65 0 -120.5 -12.5t-95.5 -41t-62.5 -75.5t-22.5 -115q0 -81 48.5 -139.5t150.5 -100.5l223 -90q79 -32 128 -67.5t81 -77.5q38 -48 61 -113t23 -162q0 -39 -6.5 -78t-18 -74.5t-27.5 -66t-36 -53.5 q-68 -78 -173.5 -119t-250.5 -41q-65 0 -126.5 8t-118 21.5t-106 32t-89.5 39.5z" />
<glyph unicode="T" horiz-adv-x="1196" d="M29 1364v160h1138v-160h-471v-1364h-196v1364h-471z" />
<glyph unicode="U" horiz-adv-x="1389" d="M141 653v871h197v-973q0 -110 19 -189t61 -130t109.5 -75t164.5 -24q98 0 166.5 24t111 75t62 130t19.5 189v973h196v-871q0 -186 -28.5 -316.5t-94 -212.5t-171.5 -119.5t-261 -37.5q-153 0 -258.5 37.5t-170.5 119.5t-93.5 212.5t-28.5 316.5z" />
<glyph unicode="V" horiz-adv-x="1251" d="M0 1524h209l422 -1325l424 1325h196l-512 -1524h-229z" />
<glyph unicode="W" horiz-adv-x="1907" d="M0 1524h213l313 -1313l330 1313h215l322 -1276l315 1276h199l-414 -1524h-225l-316 1208l-315 -1208h-225z" />
<glyph unicode="X" horiz-adv-x="1266" d="M18 2l504 778l-463 744h213l359 -574l370 574h195l-469 -729l287 -459q55 -90 109.5 -167.5t113.5 -125.5l-180 -68q-19 15 -39 35.5t-42.5 49.5t-48.5 67.5t-57 89.5l-252 408l-399 -623h-201z" />
<glyph unicode="Y" horiz-adv-x="1243" d="M0 1524h203l424 -717l428 717h188l-524 -899v-625h-197v625z" />
<glyph unicode="Z" horiz-adv-x="1204" d="M49 0v135l850 1227h-790v162h1021v-135l-849 -1227h874v-162h-1106z" />
<glyph unicode="[" horiz-adv-x="590" d="M170 -401v1925h350v-127h-164v-1671h162v-127h-348z" />
<glyph unicode="\" horiz-adv-x="633" d="M8 1524h148l469 -1524h-148z" />
<glyph unicode="]" horiz-adv-x="590" d="M70 1397v127h350v-1925h-348v127h161v1671h-163z" />
<glyph unicode="^" horiz-adv-x="1069" d="M100 621l338 829h193l338 -829h-168l-266 667l-267 -667h-168z" />
<glyph unicode="_" horiz-adv-x="1024" d="M0 -244h1024v-157h-1024v157z" />
<glyph unicode="`" horiz-adv-x="739" d="M221 1440h195l100 -299h-133z" />
<glyph unicode="a" horiz-adv-x="1051" d="M82 260q0 65 17 122t55 99q22 25 51 44.5t70.5 34t96.5 25t130 17.5l241 23v37q0 58 -19 98t-52.5 65t-79.5 36t-100 11q-102 0 -181.5 -22.5t-130.5 -48.5l-20 143q23 11 57 24.5t80.5 25.5t105.5 20t132 8q103 0 176 -24t119.5 -70.5t68 -115.5t21.5 -159v-344 q0 -69 6 -144t35 -153l-181 -32q-5 8 -10 23t-10.5 32t-9.5 33.5t-7 27.5q-28 -29 -60 -51.5t-71.5 -38.5t-89 -24.5t-112.5 -8.5q-79 0 -140 21t-103 59.5t-63.5 91t-21.5 115.5zM260 268q0 -27 5 -45.5t13 -31.5t16.5 -21.5t16.5 -15.5q22 -20 58 -29.5t96 -9.5 q64 0 115.5 21t87.5 58t55.5 87.5t19.5 109.5v94l-223 -24q-61 -7 -109 -19.5t-81.5 -34.5t-51.5 -55.5t-18 -83.5z" />
<glyph unicode="b" horiz-adv-x="1139" d="M145 0v1524l181 6v-649q28 35 59.5 61.5t70.5 44t86.5 26.5t108.5 9q73 0 143 -27t124.5 -87.5t88 -157.5t33.5 -238q0 -129 -32 -230.5t-88 -171t-132 -106.5t-165 -37q-45 0 -84.5 4.5t-75 14t-69.5 25.5t-68 40l-7 -51h-174zM326 227q20 -24 44 -45.5t54 -37t67 -24.5 t84 -9q72 0 125 30t87.5 83t51.5 125.5t17 158.5q0 190 -62.5 276t-191.5 86q-59 0 -109 -23t-87.5 -66t-58.5 -105t-21 -139v-310z" />
<glyph unicode="c" horiz-adv-x="938" d="M98 500q0 137 41 236t107.5 162.5t152 93.5t174.5 30q96 0 180.5 -29.5t141.5 -79.5l-70 -125q-38 35 -99 59.5t-146 24.5q-63 0 -118.5 -22t-97.5 -67.5t-66 -115.5t-24 -167q0 -108 28.5 -180.5t73 -116t99 -62t107.5 -18.5q34 0 69.5 6t68.5 15.5t61 21t46 22.5 l58 -135q-28 -18 -65 -33.5t-80.5 -27t-92 -18.5t-98.5 -7q-111 0 -195.5 39t-141.5 109.5t-85.5 168.5t-28.5 216z" />
<glyph unicode="d" horiz-adv-x="1124" d="M98 489q0 134 32 234t89 166.5t136.5 99.5t174.5 33q63 0 109.5 -11t80.5 -27t56 -34t37 -32v606l180 4v-1223q0 -72 1.5 -144.5t23.5 -144.5l-184 -32q-10 24 -15 59.5t-10 73.5q-32 -35 -65 -60t-71.5 -41t-85 -24t-106.5 -8q-71 0 -139.5 26.5t-122.5 86t-87.5 156 t-33.5 236.5zM283 494q0 -112 19.5 -183.5t59.5 -111.5q61 -64 175 -64q58 0 108.5 24.5t87.5 69t58.5 107.5t21.5 141v246q-18 34 -41.5 63t-54 49.5t-68.5 32t-86 11.5q-72 0 -125 -28.5t-87.5 -79.5t-51 -122t-16.5 -155z" />
<glyph unicode="e" horiz-adv-x="1051" d="M98 494q0 144 35.5 244.5t96 163.5t140 91.5t167.5 28.5q87 0 164.5 -23t135 -81t91 -156.5t33.5 -249.5v-63h-682q7 -92 35 -155.5t71 -102.5t97.5 -56.5t113.5 -17.5q39 0 72 2.5t63 8.5t58.5 15.5t58.5 22.5l47 -133q-32 -15 -65.5 -27t-73 -20.5t-87 -13.5t-106.5 -5 q-58 0 -115 11t-109 35.5t-96 64.5t-76 98.5t-50.5 137.5t-18.5 180zM279 580h497q0 83 -16.5 142t-47 96.5t-73.5 55t-96 17.5q-108 0 -174 -66q-18 -18 -32.5 -41t-25.5 -52.5t-19.5 -66.5t-12.5 -85z" />
<glyph unicode="f" horiz-adv-x="625" d="M57 850v139h144v221q0 86 24 147t65.5 99.5t98.5 56t123 17.5q46 0 93.5 -8.5t84.5 -22.5l-24 -135q-10 3 -37.5 9.5t-73.5 6.5q-91 0 -132.5 -46.5t-41.5 -139.5v-205h246v-139h-246v-850h-180v850h-144z" />
<glyph unicode="g" horiz-adv-x="1139" d="M98 498q0 127 30.5 225t85 164.5t130 100.5t164.5 34q54 0 98 -6.5t80.5 -21t67.5 -37.5t59 -56v88l180 4v-938q0 -111 -25.5 -196t-80 -142.5t-141 -87.5t-209.5 -30q-60 0 -109.5 3.5t-92.5 11t-81.5 18t-77.5 24.5l27 149q53 -21 125 -39t176 -18q70 0 127 13t97.5 46 t62.5 89t22 141v100q-33 -35 -66 -61t-72 -43t-86 -25t-108 -8q-71 0 -139.5 25t-122.5 83.5t-87.5 153.5t-33.5 236zM283 502q0 -98 15.5 -165t47 -108t79 -59t112.5 -18q58 0 108.5 23t87.5 66t58.5 105t21.5 139v244q-18 32 -41.5 59.5t-54 47.5t-68.5 31.5t-86 11.5 q-72 0 -125 -27.5t-87.5 -77t-51 -119t-16.5 -153.5z" />
<glyph unicode="h" horiz-adv-x="1108" d="M145 0v1524l181 4v-676q24 47 59 79.5t77 52.5t90.5 29t100.5 9q92 0 154.5 -26.5t100 -73.5t53.5 -111t16 -139v-359q0 -77 1.5 -150.5t22.5 -148.5l-184 -34q-12 42 -18 103.5t-6 160.5v364q0 61 -8 109.5t-30 82t-60 51t-99 17.5q-73 0 -124.5 -34t-83.5 -87.5 t-47 -119t-15 -127.5v-500h-181z" />
<glyph unicode="i" horiz-adv-x="506" d="M141 1348q0 25 9.5 47t26 38t38.5 25.5t47 9.5t47.5 -9.5t38.5 -25.5t25.5 -38t9.5 -47q0 -26 -9.5 -48t-25.5 -38t-38.5 -25.5t-47.5 -9.5t-47 9.5t-38.5 25.5t-26 38t-9.5 48zM172 238v751l180 6v-690q0 -72 4.5 -146t30.5 -147l-182 -32q-16 40 -24.5 100.5 t-8.5 157.5z" />
<glyph unicode="j" horiz-adv-x="516" d="M-111 -375l25 129q32 -9 52.5 -11.5t41.5 -2.5q32 0 60 6.5t48.5 24t32 49t11.5 82.5v1087l180 6v-1097q0 -71 -14.5 -126.5t-47.5 -94t-87 -58.5t-132 -20q-42 0 -85 6t-85 20zM129 1348q0 25 9.5 47t25.5 38t38 25.5t48 9.5q25 0 47 -9.5t38.5 -25.5t26 -38t9.5 -47 q0 -26 -9.5 -48t-26 -38t-38.5 -25.5t-47 -9.5q-26 0 -48 9.5t-38 25.5t-25.5 38t-9.5 48z" />
<glyph unicode="k" horiz-adv-x="1001" d="M145 0v1524l181 4v-903l417 368l215 -4l-458 -401l340 -389q26 -30 52 -56t48.5 -46t38.5 -33.5t22 -18.5l-182 -63q-15 11 -40 34t-53 52t-57 60.5t-53 59.5l-290 351v-539h-181z" />
<glyph unicode="l" horiz-adv-x="471" d="M145 238v1286l181 6v-1225q0 -36 0.5 -72.5t3.5 -73.5t10 -74t20 -73l-182 -32q-15 40 -24 100.5t-9 157.5z" />
<glyph unicode="m" horiz-adv-x="1718" d="M145 0v989l181 4v-141q23 45 56 77t73.5 52.5t88 30.5t99.5 10q60 0 106.5 -12.5t81.5 -35t58.5 -54t38.5 -68.5q34 50 74 82.5t83.5 52t91 27.5t97.5 8q92 0 152.5 -28.5t96 -76.5t50 -111.5t14.5 -133.5v-359q0 -77 1.5 -151t23.5 -148l-174 -34q-13 41 -24 103.5 t-11 160.5v364q0 55 -6.5 103t-26 82.5t-56.5 54.5t-97 20q-73 0 -123 -35.5t-80.5 -89.5t-44 -119t-13.5 -124v-500h-184v608q0 55 -6.5 103t-26 82.5t-56 54.5t-97.5 20q-49 0 -87 -16.5t-67 -44t-49 -64.5t-33 -78t-18.5 -83.5t-5.5 -81.5v-500h-181z" />
<glyph unicode="n" horiz-adv-x="1108" d="M145 0v989l181 4v-141q24 47 59 79.5t77 52.5t90.5 29t100.5 9q92 0 154.5 -26.5t100 -73.5t53.5 -111t16 -139v-359q0 -77 1.5 -150.5t22.5 -148.5l-184 -34q-12 42 -18 103.5t-6 160.5v364q0 61 -8 109.5t-30 82t-60 51t-99 17.5q-73 0 -124.5 -34t-83.5 -87.5 t-47 -119t-15 -127.5v-500h-181z" />
<glyph unicode="o" horiz-adv-x="1118" d="M98 494q0 139 37 239t100.5 164.5t147 94.5t176.5 30q94 0 177.5 -30t146.5 -94.5t100 -164.5t37 -239q0 -140 -37 -240t-100 -163.5t-146.5 -93.5t-177.5 -30t-177.5 30t-146.5 93.5t-100 163.5t-37 240zM283 494q0 -98 19.5 -171t55.5 -121t87 -72t114 -24q64 0 115 24 t87 72t55.5 121t19.5 171q0 97 -19.5 170t-55.5 122t-87 73t-115 24q-63 0 -114 -24t-87 -73t-55.5 -122t-19.5 -170z" />
<glyph unicode="p" horiz-adv-x="1139" d="M145 -401v1390l181 6v-114q31 35 62.5 61.5t70 44t85 26.5t107.5 9q73 0 143 -27t124.5 -87.5t88 -157.5t33.5 -238q0 -129 -32 -230.5t-88 -171t-132 -106.5t-165 -37q-45 0 -84.5 4.5t-75 14t-69.5 25.5t-68 40v-452h-181zM326 227q20 -24 44 -45.5t54 -37t67 -24.5 t84 -9q72 0 125 30t87.5 83t51.5 125.5t17 158.5q0 190 -62.5 276t-191.5 86q-59 0 -109 -23t-87.5 -66t-58.5 -105t-21 -139v-310z" />
<glyph unicode="q" horiz-adv-x="1139" d="M98 489q0 134 32 234t89 166.5t136.5 99.5t174.5 33q63 0 109.5 -11t80.5 -27t56 -34t37 -32v67l180 4v-1390h-180v524q-34 -39 -69 -65.5t-74.5 -43t-86 -23.5t-102.5 -7q-71 0 -139.5 26.5t-122.5 86t-87.5 156t-33.5 236.5zM283 494q0 -112 19.5 -183.5t59.5 -111.5 q61 -64 175 -64q58 0 108.5 24.5t87.5 69t58.5 107.5t21.5 141v246q-18 34 -41.5 63t-54 49.5t-68.5 32t-86 11.5q-72 0 -125 -28.5t-87.5 -79.5t-51 -122t-16.5 -155z" />
<glyph unicode="r" horiz-adv-x="696" d="M145 0v989l181 4v-196q29 64 63.5 103.5t71 62t72 30.5t67.5 8q34 0 53.5 -4t34.5 -10l-16 -160q-22 5 -51 7t-52 2q-48 0 -91.5 -25.5t-77.5 -77t-54 -129.5t-20 -182v-422h-181z" />
<glyph unicode="s" horiz-adv-x="858" d="M49 41l41 139q63 -28 140 -46.5t155 -18.5q54 0 97.5 7.5t74 25t47.5 44.5t17 66q0 31 -12.5 55t-35 43.5t-52.5 34.5t-64 27l-166 59q-53 19 -87.5 42t-56.5 44q-32 31 -47.5 70t-15.5 104q0 59 22.5 111t68.5 90.5t115.5 61t164.5 22.5q99 0 175 -16t142 -45l-45 -130 q-23 9 -50.5 18.5t-59 17.5t-66.5 13t-72 5q-43 0 -84.5 -5.5t-74 -20.5t-52.5 -42.5t-20 -71.5q0 -49 36.5 -82t108.5 -59l176 -63q62 -22 102 -46.5t68 -52.5q31 -32 45.5 -73t14.5 -107q0 -26 -4.5 -52t-13.5 -50.5t-21.5 -46t-28.5 -37.5q-56 -56 -137.5 -82.5 t-196.5 -26.5q-41 0 -88 5.5t-94 15.5t-90.5 23.5t-75.5 29.5z" />
<glyph unicode="t" horiz-adv-x="725" d="M45 850v139h160v268l180 68v-336h281v-139h-281v-551q0 -54 9 -86.5t28 -50.5q17 -17 40.5 -23t49.5 -6q51 0 83 11.5t60 25.5l54 -121q-45 -29 -113 -48t-143 -19q-57 0 -102.5 15t-76.5 44q-37 35 -53 91.5t-16 133.5v584h-160z" />
<glyph unicode="u" horiz-adv-x="1135" d="M145 317v672l185 6v-614q0 -62 8 -110t29.5 -81.5t60 -51t98.5 -17.5q73 0 124.5 34.5t84 88t47.5 118.5t15 127v500l180 6v-682q0 -74 1.5 -148t22.5 -147l-186 -34q-9 27 -13.5 70t-4.5 83q-25 -47 -59.5 -79.5t-77 -52.5t-91 -29t-100.5 -9q-92 0 -154.5 26.5 t-100 73.5t-53.5 111t-16 139z" />
<glyph unicode="v" horiz-adv-x="944" d="M0 989l193 6l266 -825l315 823l170 -4l-397 -989h-195z" />
<glyph unicode="w" horiz-adv-x="1405" d="M0 989l193 27l184 -836l252 809l166 6l198 -813l238 813l174 -6l-315 -989h-203l-187 739l-229 -739h-201z" />
<glyph unicode="x" horiz-adv-x="918" d="M25 0l335 498l-325 491l184 4l236 -358l235 354l174 4l-325 -483l176 -260q24 -36 46 -67t43 -58.5t42.5 -52.5t46.5 -49l-170 -52q-40 41 -77 93t-64 96l-138 215l-249 -375h-170z" />
<glyph unicode="y" horiz-adv-x="954" d="M-14 -360l34 139q22 -14 52.5 -23.5t77.5 -9.5q66 0 106 43.5t72 122.5l61 151l-389 926l199 6l282 -704l285 702l188 -4l-450 -1085q-22 -51 -38.5 -86.5t-30.5 -60.5t-26.5 -41t-25.5 -29q-43 -44 -98 -64t-121 -20q-23 0 -44 1.5t-42 5.5t-43 11t-49 19z" />
<glyph unicode="z" horiz-adv-x="862" d="M29 0v135l561 717h-531v137h738v-135l-561 -717h598v-137h-805z" />
<glyph unicode="{" horiz-adv-x="768" d="M70 483v156q76 5 120 41t66.5 89t28.5 116t6 123v143q0 86 7.5 155t39.5 117.5t97.5 74.5t182.5 26h80v-127q-65 -1 -107 -13.5t-67 -42t-35 -77.5t-10 -119v-227q0 -50 -4 -97t-23 -91.5t-58.5 -87t-110.5 -81.5q71 -39 110.5 -81t58.5 -87t23 -92t4 -96v-228 q0 -71 10 -119t35 -77t67 -41.5t107 -13.5v-127h-80q-117 0 -182.5 26t-97.5 74t-39.5 117t-7.5 155v144q0 40 -2.5 81.5t-10 81.5t-22 75.5t-39 63t-61 45.5t-86.5 21z" />
<glyph unicode="|" horiz-adv-x="510" d="M186 -401v1925h140v-1925h-140z" />
<glyph unicode="}" horiz-adv-x="768" d="M70 -274q64 1 106.5 13.5t67.5 41.5t35 77t10 119v228q0 49 4 96t23 92t58.5 87t110.5 81q-71 39 -110.5 81.5t-58.5 87t-23 91.5t-4 97v227q0 71 -10 119t-35 77.5t-67.5 42t-106.5 13.5v127h80q117 0 182.5 -26t97.5 -74.5t39.5 -117.5t7.5 -155v-143q0 -60 6 -123 t28.5 -116t66.5 -89t120 -41v-156q-51 -4 -87 -21.5t-60.5 -45t-39 -63t-22 -75.5t-10 -81.5t-2.5 -81.5v-144q0 -86 -7.5 -155t-39.5 -117t-97.5 -74t-182.5 -26h-80v127z" />
<glyph unicode="~" horiz-adv-x="1178" d="M49 547q82 134 157 195t152 61q28 0 56.5 -8.5t61 -24t70.5 -39t83 -53.5q42 -28 74 -45t57 -26t44.5 -12t35.5 -3q32 0 57.5 8.5t48 24.5t44.5 39.5t46 52.5l92 -84q-81 -134 -156 -195t-153 -61q-29 0 -57 7.5t-60.5 22.5t-70 37.5t-84.5 51.5q-38 24 -68 41 t-55.5 28.5t-47 17t-42.5 5.5q-31 0 -55.5 -8.5t-47 -24.5t-44 -39.5t-46.5 -52.5z" />
<glyph unicode="&#xa1;" horiz-adv-x="651" d="M188 1419q0 28 11 53t29.5 44t43.5 29.5t54 10.5q28 0 53 -10.5t43.5 -29.5t29.5 -44t11 -53q0 -29 -11 -53.5t-29.5 -43.5t-43.5 -29.5t-53 -10.5q-29 0 -54 10.5t-43.5 29.5t-29.5 43.5t-11 53.5zM211 0l41 1051h147l41 -1051h-229z" />
<glyph unicode="&#xa2;" horiz-adv-x="938" d="M98 500q0 122 33 213.5t88 155t127.5 99.5t151.5 48v237h110v-233q85 -5 159.5 -33.5t127.5 -73.5l-70 -125q-35 31 -88.5 55t-128.5 29v-749q31 2 63 8.5t61 15.5t53.5 19.5t41.5 21.5l58 -135q-48 -29 -120.5 -52.5t-156.5 -31.5v-252h-110v252q-98 9 -173 51 t-125.5 111.5t-76 163.5t-25.5 205zM274 500q0 -87 19 -150.5t50 -107.5t71.5 -70.5t83.5 -38.5v729q-48 -12 -89 -40t-71 -72.5t-47 -106.5t-17 -143z" />
<glyph unicode="&#xa3;" d="M137 700v127h207q-46 93 -73 174.5t-27 161.5q0 79 24.5 138t67.5 102q60 61 145.5 91t175.5 30q69 0 127.5 -10.5t107.5 -27.5t88.5 -38.5t70.5 -44.5l-66 -123q-56 41 -133.5 68.5t-159.5 27.5q-80 0 -129 -17.5t-80 -49.5q-51 -53 -51 -140q0 -48 9 -89t25 -80.5 t37.5 -81t47.5 -91.5h352v-127h-287q29 -62 48.5 -117t19.5 -114q0 -83 -46.5 -159t-154.5 -148h619v-162h-963v121q100 40 166.5 83t106 87.5t55.5 89.5t16 88q0 19 -2.5 39t-10.5 46t-22 61t-38 85h-273z" />
<glyph unicode="&#xa4;" d="M66 328l131 131q-47 60 -73 133.5t-26 157.5q0 83 26 157t73 135l-131 129l94 95l131 -129q60 46 133.5 71t157.5 25q81 0 155 -25t137 -71l130 129l94 -95l-129 -129q45 -60 70.5 -134.5t25.5 -157.5q0 -82 -25 -156.5t-71 -134.5l129 -131l-94 -95l-130 132 q-61 -47 -135 -73t-157 -26q-82 0 -156.5 25.5t-134.5 73.5l-131 -132zM248 750q0 -69 26 -130t71.5 -106.5t106.5 -71.5t130 -26t129.5 26t106 71.5t71.5 106.5t26 130t-26 129.5t-71.5 106t-106 71.5t-129.5 26t-130 -26t-106.5 -71.5t-71.5 -106t-26 -129.5z" />
<glyph unicode="&#xa5;" d="M0 1501h203l383 -704l389 704h188l-452 -825h297v-117h-330v-174h330v-117h-330v-268h-197v268h-327v117h327v174h-327v117h295z" />
<glyph unicode="&#xa6;" horiz-adv-x="510" d="M186 240h140v-641h-140v641zM186 881v643h140v-643h-140z" />
<glyph unicode="&#xa7;" horiz-adv-x="958" d="M70 641q0 55 14 102t46 88t83.5 77t126.5 69q-51 51 -83 93t-50.5 79.5t-25.5 73t-7 75.5q0 46 19 92t57.5 83t96 60t134.5 23q51 0 94.5 -6t83 -18t76 -30.5t74.5 -43.5l-55 -115q-53 36 -108.5 59t-121.5 23q-45 0 -80.5 -13t-58.5 -36q-39 -41 -39 -100q0 -29 9 -55 t26 -51t42.5 -51t57.5 -54l162 -141q63 -55 109.5 -104t76.5 -97t45 -98.5t15 -108.5q0 -55 -14.5 -102t-46.5 -88t-83.5 -77t-126.5 -69q51 -51 83.5 -93t50.5 -79.5t25 -73t7 -75.5q0 -45 -18 -91t-55.5 -83t-94 -60.5t-133.5 -23.5q-51 0 -95 5.5t-84 17.5t-77.5 30.5 t-74.5 44.5l47 121q62 -42 123 -64t124 -22q36 0 66.5 10t52.5 29t34.5 46t12.5 62q0 29 -9 55t-26.5 51t-42.5 50.5t-57 54.5l-162 141q-63 55 -109 104t-76.5 97t-45 98.5t-14.5 108.5zM236 657q0 -55 29.5 -109t72.5 -103.5t91 -93t85 -77.5q108 44 157.5 104.5 t49.5 123.5q0 34 -12.5 69t-34.5 70t-51.5 69t-63.5 66l-113 107q-56 -16 -95.5 -42t-65 -56.5t-37.5 -63.5t-12 -64z" />
<glyph unicode="&#xa8;" horiz-adv-x="739" d="M35 1290q0 25 9.5 46.5t25.5 37.5t37.5 25.5t46.5 9.5q24 0 45.5 -9.5t37.5 -25.5t25.5 -37.5t9.5 -46.5q0 -24 -9.5 -46t-25.5 -38t-37.5 -25.5t-45.5 -9.5q-25 0 -46.5 9.5t-37.5 25.5t-25.5 38t-9.5 46zM467 1290q0 25 9.5 46.5t25.5 37.5t37.5 25.5t46.5 9.5 q24 0 46 -9.5t38 -25.5t25.5 -37.5t9.5 -46.5q0 -24 -9.5 -46t-25.5 -38t-38 -25.5t-46 -9.5q-25 0 -46.5 9.5t-37.5 25.5t-25.5 38t-9.5 46z" />
<glyph unicode="&#xa9;" horiz-adv-x="1827" d="M119 762q0 109 28.5 210.5t80 190t124 161t161 124t190 80t210.5 28.5q110 0 211.5 -28.5t190 -80t161 -124t124 -161t80 -190t28.5 -210.5q0 -110 -28.5 -211t-80 -189.5t-124 -161t-161 -124.5t-190 -80.5t-211.5 -28.5t-211 28.5t-189.5 80.5t-161 124.5t-124 161 t-80 190t-28.5 210.5zM270 762q0 -89 23 -171t64.5 -153.5t100.5 -130.5t130.5 -100.5t153.5 -64.5t171 -23t171.5 23t154 64.5t130 100.5t100 130.5t64.5 153.5t23 171t-23 171t-64.5 153.5t-100 130.5t-130 100.5t-154 64.5t-171.5 23t-171 -23t-153.5 -64.5 t-130.5 -100.5t-100.5 -130.5t-64.5 -153.5t-23 -171zM555 774q0 97 28.5 173.5t79 130t119 82t148.5 28.5q90 0 154.5 -24.5t113.5 -67.5l-72 -103q-54 41 -97.5 56.5t-88.5 15.5q-56 0 -98.5 -22t-71.5 -61.5t-44 -93t-15 -116.5q0 -82 19.5 -138t52 -90.5t74 -49.5 t85.5 -15q40 0 85.5 13.5t113.5 44.5l57 -111q-46 -28 -117.5 -51t-156.5 -23q-84 0 -152 29t-116.5 83.5t-74.5 133t-26 176.5z" />
<glyph unicode="&#xaa;" horiz-adv-x="723" d="M74 1102q0 91 57.5 141.5t159.5 61.5l186 20v23q0 31 -10.5 51.5t-31 32.5t-49 17t-64.5 5q-41 0 -84.5 -8.5t-100.5 -28.5l-18 99q30 10 58 17.5t57 12.5t61 7.5t70 2.5q67 0 114.5 -14.5t76.5 -41t42.5 -64t13.5 -84.5v-217q0 -19 0.5 -38t3.5 -40t9 -45t18 -51 l-139 -27q-5 15 -9.5 27t-15.5 38q-23 -18 -44.5 -31t-44.5 -21.5t-50 -12.5t-61 -4q-101 0 -153 48t-52 124zM215 1122q0 -32 11 -50.5t28 -28t36.5 -12.5t37.5 -3q40 0 68.5 10.5t46.5 29t26 44t8 55.5v72l-139 -16q-60 -8 -91.5 -30.5t-31.5 -70.5z" />
<glyph unicode="&#xab;" horiz-adv-x="954" d="M49 502l219 475h166l-217 -475l217 -477h-166zM520 502l219 475h166l-217 -475l217 -477h-166z" />
<glyph unicode="&#xac;" d="M131 911v144h903v-609h-145v465h-758z" />
<glyph unicode="&#xad;" horiz-adv-x="686" d="M92 414v172h502v-172h-502z" />
<glyph unicode="&#xae;" horiz-adv-x="1827" d="M119 762q0 109 28.5 210.5t80 190t124 161t161 124t190 80t210.5 28.5q110 0 211.5 -28.5t190 -80t161 -124t124 -161t80 -190t28.5 -210.5q0 -110 -28.5 -211t-80 -189.5t-124 -161t-161 -124.5t-190 -80.5t-211.5 -28.5t-211 28.5t-189.5 80.5t-161 124.5t-124 161 t-80 190t-28.5 210.5zM270 762q0 -89 23 -171t64.5 -153.5t100.5 -130.5t130.5 -100.5t153.5 -64.5t171 -23t171.5 23t154 64.5t130 100.5t100 130.5t64.5 153.5t23 171t-23 171t-64.5 153.5t-100 130.5t-130 100.5t-154 64.5t-171.5 23t-171 -23t-153.5 -64.5 t-130.5 -100.5t-100.5 -130.5t-64.5 -153.5t-23 -171zM662 389v799q27 1 52 1.5t53.5 1t63.5 1t82 0.5q72 0 125 -17.5t87.5 -49t51.5 -74.5t17 -93q0 -74 -32 -131.5t-101 -95.5l133 -207q14 -23 34.5 -44t55.5 -52l-135 -55q-29 20 -54 50t-48 69l-125 217q-29 0 -60 1.5 t-59 4.5v-326h-141zM803 831q29 -3 53 -4.5t55 -1.5q36 0 62 10.5t42.5 28.5t24 41.5t7.5 50.5q0 54 -35 86.5t-109 32.5q-17 0 -29 -0.5t-23 -1l-22 -1t-26 -1.5v-240z" />
<glyph unicode="&#xaf;" horiz-adv-x="739" d="M53 1182v149h633v-149h-633z" />
<glyph unicode="&#xb0;" horiz-adv-x="799" d="M80 1237q0 66 25 124t68.5 101.5t101.5 68.5t124 25t124 -25t101.5 -68.5t69 -101.5t25.5 -124t-25.5 -124t-69 -101.5t-101.5 -68.5t-124 -25t-124 25t-101.5 68.5t-68.5 101.5t-25 124zM217 1237q0 -38 14.5 -71t39 -57.5t57.5 -39t71 -14.5t71.5 14.5t58 39t39 57.5 t14.5 71q0 37 -14.5 70.5t-39 58t-58 39t-71.5 14.5t-71 -14.5t-57.5 -39t-39 -58t-14.5 -70.5z" />
<glyph unicode="&#xb1;" d="M90 0v143h985v-143h-985zM90 682v143h420v441h145v-441h420v-143h-420v-449h-145v449h-420z" />
<glyph unicode="&#xb2;" horiz-adv-x="819" d="M143 690v90l222 219q74 73 120.5 144.5t46.5 140.5q0 54 -33 85.5t-98 31.5q-49 0 -82.5 -22.5t-70.5 -67.5l-94 69q23 30 49 56t58.5 45.5t73.5 31t93 11.5q59 0 106 -19t79.5 -50.5t49.5 -72.5t17 -86t-9.5 -85t-30 -79t-53 -79.5t-79.5 -87.5l-152 -152h328v-123h-541 z" />
<glyph unicode="&#xb3;" horiz-adv-x="819" d="M125 721l35 117q52 -23 94.5 -34t91.5 -11q48 0 82 10.5t55.5 30t31 47t9.5 61.5q0 44 -16.5 72t-43 44.5t-59 22.5t-63.5 6h-25t-45 -2v99l201 207h-317v114h491v-92l-213 -227q66 -9 109.5 -31t70.5 -51q29 -31 41.5 -72t12.5 -92q0 -69 -22 -115t-60 -84 q-38 -35 -97.5 -52t-132.5 -17q-29 0 -55.5 3t-54 9t-57.5 15.5t-64 21.5z" />
<glyph unicode="&#xb4;" horiz-adv-x="739" d="M223 1141l101 299h194l-162 -299h-133z" />
<glyph unicode="&#xb6;" horiz-adv-x="1278" d="M61 1100q0 99 31.5 177.5t93 133.5t152 84t209.5 29h586v-1925h-148v1804h-250v-1804h-147v1075q-134 0 -233 29.5t-164.5 84.5t-97.5 134t-32 178z" />
<glyph unicode="&#xb7;" horiz-adv-x="651" d="M188 745q0 28 11 53.5t29.5 44t43.5 29.5t54 11q28 0 53 -11t43.5 -29.5t29.5 -44t11 -53.5t-11 -53t-29.5 -43.5t-43.5 -29.5t-53 -11q-29 0 -54 11t-43.5 29.5t-29.5 43.5t-11 53z" />
<glyph unicode="&#xb8;" horiz-adv-x="739" d="M176 -330l25 101q40 -13 65 -16t51 -3q14 0 31 5t31.5 16t24.5 30t10 47q0 17 -3.5 34.5t-13.5 39t-27.5 48t-45.5 61.5h96q69 -42 105 -96.5t36 -120.5q0 -35 -14 -67.5t-40.5 -58.5t-65 -41.5t-87.5 -15.5q-43 0 -85 9.5t-93 27.5z" />
<glyph unicode="&#xb9;" horiz-adv-x="819" d="M164 1333v119l309 70v-717h145v-115h-430v115h144v563z" />
<glyph unicode="&#xba;" horiz-adv-x="737" d="M70 1241q0 83 24.5 142.5t65.5 98t95.5 56.5t113.5 18t113 -18t95.5 -56.5t66 -98t24.5 -142.5q0 -82 -25 -141t-66.5 -97.5t-95.5 -56.5t-112 -18q-59 0 -113 18t-95 56.5t-66 97.5t-25 141zM211 1241q0 -58 13.5 -98t36 -64.5t51 -35.5t57.5 -11t57 11t50.5 35.5 t36 64.5t13.5 98t-13.5 99t-36 66t-50.5 36.5t-57 11.5t-57.5 -11.5t-51 -36.5t-36 -66t-13.5 -99z" />
<glyph unicode="&#xbb;" horiz-adv-x="954" d="M49 25l217 477l-217 475h166l219 -475l-219 -477h-166zM520 25l217 477l-217 475h166l219 -475l-219 -477h-166z" />
<glyph unicode="&#xbc;" horiz-adv-x="1745" d="M164 1333v119l309 70v-717h145v-115h-430v115h144v563zM436 2l770 1522h164l-770 -1522h-164zM1042 174v121l314 504h137l-311 -512h217v125l127 69v-194h63v-113h-63v-187h-127v187h-357z" />
<glyph unicode="&#xbd;" horiz-adv-x="1745" d="M164 1337v119l309 70v-721h145v-115h-430v115h144v567zM436 2l770 1522h164l-770 -1522h-164zM1145 -13v89l221 219q37 36 67.5 72t53 71.5t35 71t12.5 70.5q0 54 -33 85t-98 31q-25 0 -45 -5.5t-38 -17t-35.5 -28.5t-35.5 -39l-94 70q23 30 49.5 56t59 45.5t73 30.5 t93.5 11q59 0 105.5 -18.5t79 -50t49.5 -72.5t17 -86t-9.5 -85t-30 -79.5t-53 -80t-79.5 -87.5l-151 -151h328v-122h-541z" />
<glyph unicode="&#xbe;" horiz-adv-x="1745" d="M125 721l35 117q52 -23 94.5 -34t91.5 -11q48 0 82 10.5t55.5 30t31 47t9.5 61.5q0 44 -16.5 72t-43 44.5t-59 22.5t-63.5 6h-25t-45 -2v99l201 207h-317v114h491v-92l-213 -227q66 -9 109.5 -31t70.5 -51q29 -31 41.5 -72t12.5 -92q0 -69 -22 -115t-60 -84 q-38 -35 -97.5 -52t-132.5 -17q-29 0 -55.5 3t-54 9t-57.5 15.5t-64 21.5zM430 2l770 1522h164l-770 -1522h-164zM1036 174v121l314 504h137l-311 -512h217v125l127 69v-194h63v-113h-63v-187h-127v187h-357z" />
<glyph unicode="&#xbf;" horiz-adv-x="901" d="M109 268q0 61 12.5 111t35.5 93t56 81.5t74 77.5q40 37 73.5 71.5t57.5 68t37.5 67t13.5 69.5q0 29 -7 60t-18 65l152 27q19 -56 27 -97.5t8 -78.5q0 -67 -24.5 -120t-62 -99.5t-80.5 -88.5t-80.5 -86t-62 -93t-24.5 -109q0 -42 15 -74.5t41.5 -55t63 -34.5t79.5 -12 t80 8t68.5 21t60 30t55.5 35l63 -115q-52 -38 -100 -61.5t-93 -37.5t-89 -19t-88 -5q-76 0 -139.5 23t-109 63t-70.5 95t-25 120zM379 1419q0 28 10.5 53t29.5 44t43.5 29.5t53.5 10.5q28 0 53 -10.5t44 -29.5t29.5 -44t10.5 -53q0 -29 -10.5 -53.5t-29.5 -43.5t-44 -29.5 t-53 -10.5q-29 0 -53.5 10.5t-43.5 29.5t-29.5 43.5t-10.5 53.5z" />
<glyph unicode="&#xc0;" horiz-adv-x="1290" d="M0 0l524 1524h230l536 -1524h-207l-116 340h-666l-115 -340h-186zM354 498h557l-282 815zM426 1940h195l100 -299h-133z" />
<glyph unicode="&#xc1;" horiz-adv-x="1290" d="M0 0l524 1524h230l536 -1524h-207l-116 340h-666l-115 -340h-186zM354 498h557l-282 815zM571 1641l101 299h194l-162 -299h-133z" />
<glyph unicode="&#xc2;" horiz-adv-x="1290" d="M0 0l524 1524h230l536 -1524h-207l-116 340h-666l-115 -340h-186zM348 1641l186 299h195l182 -299h-155l-127 198l-127 -198h-154zM354 498h557l-282 815z" />
<glyph unicode="&#xc3;" horiz-adv-x="1290" d="M0 0l524 1524h230l536 -1524h-207l-116 340h-666l-115 -340h-186zM307 1661q2 69 16.5 119t37 82.5t52.5 47.5t64 15q25 0 45 -3.5t38 -10.5t35.5 -16t39.5 -21q13 -7 29 -15.5t33.5 -16.5t35 -13.5t33.5 -5.5q34 0 50 28t20 74h112q-2 -69 -16.5 -119t-37 -82 t-52.5 -47.5t-64 -15.5q-46 0 -83.5 15.5t-71.5 33.5q-13 7 -29.5 16.5t-34.5 17.5t-36 14t-34 6q-34 0 -50 -28t-19 -75h-113zM354 498h557l-282 815z" />
<glyph unicode="&#xc4;" horiz-adv-x="1290" d="M0 0l524 1524h230l536 -1524h-207l-116 340h-666l-115 -340h-186zM301 1790q0 25 9.5 46.5t25.5 37.5t37.5 25.5t46.5 9.5q24 0 45.5 -9.5t37.5 -25.5t25.5 -37.5t9.5 -46.5q0 -24 -9.5 -46t-25.5 -38t-37.5 -25.5t-45.5 -9.5q-25 0 -46.5 9.5t-37.5 25.5t-25.5 38 t-9.5 46zM354 498h557l-282 815zM733 1790q0 25 9.5 46.5t25.5 37.5t37.5 25.5t46.5 9.5q24 0 46 -9.5t38 -25.5t25.5 -37.5t9.5 -46.5q0 -24 -9.5 -46t-25.5 -38t-38 -25.5t-46 -9.5q-25 0 -46.5 9.5t-37.5 25.5t-25.5 38t-9.5 46z" />
<glyph unicode="&#xc5;" horiz-adv-x="1290" d="M0 0l504 1464q-44 32 -69 81t-25 106q0 48 18 89.5t49 72.5t72.5 49t89.5 18t89.5 -18t72.5 -49t49 -72.5t18 -89.5q0 -57 -25.5 -106t-68.5 -81l516 -1464h-207l-116 340h-666l-115 -340h-186zM354 498h557l-282 815zM514 1651q0 -26 10 -48.5t27 -39.5t39.5 -27 t48.5 -10q25 0 48 10t40 27t27 39.5t10 48.5q0 25 -10 47.5t-27 40t-40 27.5t-48 10q-26 0 -48.5 -10t-39.5 -27.5t-27 -40t-10 -47.5z" />
<glyph unicode="&#xc6;" horiz-adv-x="1919" d="M0 0l887 1524h938v-162h-656v-473h568v-164h-568v-563h699v-162h-895v354h-578l-202 -354h-193zM483 512h490v858z" />
<glyph unicode="&#xc7;" horiz-adv-x="1307" d="M119 770q0 187 52 333t142.5 246.5t214 153.5t267.5 53q82 0 150.5 -11t125.5 -31t102.5 -47.5t81.5 -59.5l-96 -143q-81 66 -168 95.5t-178 29.5q-118 0 -207.5 -49.5t-149.5 -134t-90 -198t-30 -241.5q0 -171 40 -290t107 -193t153.5 -107t178.5 -33q85 0 172 25.5 t189 75.5l77 -156q-27 -18 -69 -37t-95.5 -35.5t-116 -29t-130.5 -17.5q55 -64 55 -153q0 -43 -17 -79t-46.5 -61.5t-69.5 -40t-86 -14.5q-51 0 -98 11.5t-97 31.5l31 121q21 -7 37 -11t29 -6.5t23.5 -3t21.5 -0.5q43 0 70.5 23.5t27.5 73.5q0 25 -10.5 51t-36.5 61 q-126 19 -229 81t-175.5 163.5t-112.5 240.5t-40 312z" />
<glyph unicode="&#xc8;" horiz-adv-x="1116" d="M170 0v1524h852v-162h-655v-473h567v-164h-567v-563h698v-162h-895zM426 1940h195l100 -299h-133z" />
<glyph unicode="&#xc9;" horiz-adv-x="1116" d="M170 0v1524h852v-162h-655v-473h567v-164h-567v-563h698v-162h-895zM530 1641l101 299h194l-162 -299h-133z" />
<glyph unicode="&#xca;" horiz-adv-x="1116" d="M170 0v1524h852v-162h-655v-473h567v-164h-567v-563h698v-162h-895zM330 1641l186 299h195l182 -299h-155l-127 198l-127 -198h-154z" />
<glyph unicode="&#xcb;" horiz-adv-x="1116" d="M170 0v1524h852v-162h-655v-473h567v-164h-567v-563h698v-162h-895zM275 1790q0 25 9.5 46.5t25.5 37.5t37.5 25.5t46.5 9.5q24 0 45.5 -9.5t37.5 -25.5t25.5 -37.5t9.5 -46.5q0 -24 -9.5 -46t-25.5 -38t-37.5 -25.5t-45.5 -9.5q-25 0 -46.5 9.5t-37.5 25.5t-25.5 38 t-9.5 46zM707 1790q0 25 9.5 46.5t25.5 37.5t37.5 25.5t46.5 9.5q24 0 46 -9.5t38 -25.5t25.5 -37.5t9.5 -46.5q0 -24 -9.5 -46t-25.5 -38t-38 -25.5t-46 -9.5q-25 0 -46.5 9.5t-37.5 25.5t-25.5 38t-9.5 46z" />
<glyph unicode="&#xcc;" horiz-adv-x="541" d="M65 1940h195l100 -299h-133zM170 0v1524h201v-1524h-201z" />
<glyph unicode="&#xcd;" horiz-adv-x="541" d="M170 0v1524h201v-1524h-201zM192 1641l101 299h194l-162 -299h-133z" />
<glyph unicode="&#xce;" horiz-adv-x="541" d="M-10 1641l186 299h195l182 -299h-155l-127 198l-127 -198h-154zM170 0v1524h201v-1524h-201z" />
<glyph unicode="&#xcf;" horiz-adv-x="541" d="M-59 1790q0 25 9.5 46.5t25.5 37.5t37.5 25.5t46.5 9.5q24 0 45.5 -9.5t37.5 -25.5t25.5 -37.5t9.5 -46.5q0 -24 -9.5 -46t-25.5 -38t-37.5 -25.5t-45.5 -9.5q-25 0 -46.5 9.5t-37.5 25.5t-25.5 38t-9.5 46zM170 0v1524h201v-1524h-201zM373 1790q0 25 9.5 46.5 t25.5 37.5t37.5 25.5t46.5 9.5q24 0 46 -9.5t38 -25.5t25.5 -37.5t9.5 -46.5q0 -24 -9.5 -46t-25.5 -38t-38 -25.5t-46 -9.5q-25 0 -46.5 9.5t-37.5 25.5t-25.5 38t-9.5 46z" />
<glyph unicode="&#xd0;" horiz-adv-x="1499" d="M27 725v133h143v666q61 3 168 5.5t276 2.5q168 0 308.5 -42.5t242 -132.5t158.5 -230t57 -334q0 -213 -56.5 -365t-154 -249.5t-228 -143t-277.5 -45.5q-62 0 -132 1t-137.5 2.5t-126.5 3t-98 3.5v725h-143zM365 160q35 -2 66.5 -3t62.5 -2.5t64.5 -2t72.5 -0.5 q142 0 243 49t165 134t94 198.5t30 242.5q0 138 -34.5 248t-105.5 187t-178.5 118t-254.5 41q-31 0 -57.5 -1t-53 -2.5t-54 -3.5t-60.5 -5v-500h301v-133h-301v-565z" />
<glyph unicode="&#xd1;" horiz-adv-x="1444" d="M170 0v1524h213l700 -1225v1225h191v-1524h-213l-701 1219v-1219h-190zM403 1661q2 69 16.5 119t37 82.5t52.5 47.5t64 15q25 0 45 -3.5t38 -10.5t35.5 -16t39.5 -21q13 -7 29 -15.5t33.5 -16.5t35 -13.5t33.5 -5.5q34 0 50 28t20 74h112q-2 -69 -16.5 -119t-37 -82 t-52.5 -47.5t-64 -15.5q-46 0 -83.5 15.5t-71.5 33.5q-13 7 -29.5 16.5t-34.5 17.5t-36 14t-34 6q-34 0 -50 -28t-19 -75h-113z" />
<glyph unicode="&#xd2;" horiz-adv-x="1573" d="M119 762q0 209 54 359t146 247t212.5 142.5t254.5 45.5t255 -45.5t213 -142.5t146 -247t54 -359t-54 -359.5t-146 -247t-213 -142.5t-255 -46t-254.5 46t-212.5 142.5t-146 247t-54 359.5zM334 762q0 -127 27 -241.5t83 -201t141 -137.5t201 -51t201.5 51t141.5 137.5 t83 201t27 241.5t-27 241.5t-83 201t-141.5 137.5t-201.5 51t-201 -51t-141 -137.5t-83 -201t-27 -241.5zM608 1940h195l100 -299h-133z" />
<glyph unicode="&#xd3;" horiz-adv-x="1573" d="M119 762q0 209 54 359t146 247t212.5 142.5t254.5 45.5t255 -45.5t213 -142.5t146 -247t54 -359t-54 -359.5t-146 -247t-213 -142.5t-255 -46t-254.5 46t-212.5 142.5t-146 247t-54 359.5zM334 762q0 -127 27 -241.5t83 -201t141 -137.5t201 -51t201.5 51t141.5 137.5 t83 201t27 241.5t-27 241.5t-83 201t-141.5 137.5t-201.5 51t-201 -51t-141 -137.5t-83 -201t-27 -241.5zM735 1641l101 299h194l-162 -299h-133z" />
<glyph unicode="&#xd4;" horiz-adv-x="1573" d="M119 762q0 209 54 359t146 247t212.5 142.5t254.5 45.5t255 -45.5t213 -142.5t146 -247t54 -359t-54 -359.5t-146 -247t-213 -142.5t-255 -46t-254.5 46t-212.5 142.5t-146 247t-54 359.5zM334 762q0 -127 27 -241.5t83 -201t141 -137.5t201 -51t201.5 51t141.5 137.5 t83 201t27 241.5t-27 241.5t-83 201t-141.5 137.5t-201.5 51t-201 -51t-141 -137.5t-83 -201t-27 -241.5zM512 1641l186 299h195l182 -299h-155l-127 198l-127 -198h-154z" />
<glyph unicode="&#xd5;" horiz-adv-x="1573" d="M119 762q0 209 54 359t146 247t212.5 142.5t254.5 45.5t255 -45.5t213 -142.5t146 -247t54 -359t-54 -359.5t-146 -247t-213 -142.5t-255 -46t-254.5 46t-212.5 142.5t-146 247t-54 359.5zM334 762q0 -127 27 -241.5t83 -201t141 -137.5t201 -51t201.5 51t141.5 137.5 t83 201t27 241.5t-27 241.5t-83 201t-141.5 137.5t-201.5 51t-201 -51t-141 -137.5t-83 -201t-27 -241.5zM479 1661q2 69 16.5 119t37 82.5t52.5 47.5t64 15q25 0 45 -3.5t38 -10.5t35.5 -16t39.5 -21q13 -7 29 -15.5t33.5 -16.5t35 -13.5t33.5 -5.5q34 0 50 28t20 74h112 q-2 -69 -16.5 -119t-37 -82t-52.5 -47.5t-64 -15.5q-46 0 -83.5 15.5t-71.5 33.5q-13 7 -29.5 16.5t-34.5 17.5t-36 14t-34 6q-34 0 -50 -28t-19 -75h-113z" />
<glyph unicode="&#xd6;" horiz-adv-x="1573" d="M119 762q0 209 54 359t146 247t212.5 142.5t254.5 45.5t255 -45.5t213 -142.5t146 -247t54 -359t-54 -359.5t-146 -247t-213 -142.5t-255 -46t-254.5 46t-212.5 142.5t-146 247t-54 359.5zM334 762q0 -127 27 -241.5t83 -201t141 -137.5t201 -51t201.5 51t141.5 137.5 t83 201t27 241.5t-27 241.5t-83 201t-141.5 137.5t-201.5 51t-201 -51t-141 -137.5t-83 -201t-27 -241.5zM451 1790q0 25 9.5 46.5t25.5 37.5t37.5 25.5t46.5 9.5q24 0 45.5 -9.5t37.5 -25.5t25.5 -37.5t9.5 -46.5q0 -24 -9.5 -46t-25.5 -38t-37.5 -25.5t-45.5 -9.5 q-25 0 -46.5 9.5t-37.5 25.5t-25.5 38t-9.5 46zM883 1790q0 25 9.5 46.5t25.5 37.5t37.5 25.5t46.5 9.5q24 0 46 -9.5t38 -25.5t25.5 -37.5t9.5 -46.5q0 -24 -9.5 -46t-25.5 -38t-38 -25.5t-46 -9.5q-25 0 -46.5 9.5t-37.5 25.5t-25.5 38t-9.5 46z" />
<glyph unicode="&#xd7;" d="M172 422l317 328l-317 327l92 92l318 -325l315 325l92 -92l-317 -327l317 -328l-92 -92l-315 325l-318 -325z" />
<glyph unicode="&#xd8;" horiz-adv-x="1573" d="M119 762q0 209 54 359t146 247t212.5 142.5t254.5 45.5q63 0 122.5 -9t115.5 -29l70 165h147l-94 -227q68 -44 124.5 -108.5t97 -150.5t63 -194.5t22.5 -240.5q0 -209 -54 -359.5t-146 -247t-213 -142.5t-255 -46q-126 0 -237 39l-70 -166h-147l94 228 q-68 43 -124.5 107.5t-97 151t-63 195t-22.5 240.5zM334 762q0 -78 10 -151.5t30.5 -139.5t52 -122.5t73.5 -100.5l458 1108q-38 18 -80 27.5t-92 9.5q-116 0 -201 -51t-141 -137.5t-83 -201t-27 -241.5zM614 168q77 -37 172 -37q116 0 201.5 51t141.5 137.5t83 201 t27 241.5q0 78 -10 151.5t-30.5 139.5t-52 122.5t-73.5 100.5z" />
<glyph unicode="&#xd9;" horiz-adv-x="1389" d="M141 653v871h197v-973q0 -110 19 -189t61 -130t109.5 -75t164.5 -24q98 0 166.5 24t111 75t62 130t19.5 189v973h196v-871q0 -186 -28.5 -316.5t-94 -212.5t-171.5 -119.5t-261 -37.5q-153 0 -258.5 37.5t-170.5 119.5t-93.5 212.5t-28.5 316.5zM495 1940h195l100 -299 h-133z" />
<glyph unicode="&#xda;" horiz-adv-x="1389" d="M141 653v871h197v-973q0 -110 19 -189t61 -130t109.5 -75t164.5 -24q98 0 166.5 24t111 75t62 130t19.5 189v973h196v-871q0 -186 -28.5 -316.5t-94 -212.5t-171.5 -119.5t-261 -37.5q-153 0 -258.5 37.5t-170.5 119.5t-93.5 212.5t-28.5 316.5zM633 1641l101 299h194 l-162 -299h-133z" />
<glyph unicode="&#xdb;" horiz-adv-x="1389" d="M141 653v871h197v-973q0 -110 19 -189t61 -130t109.5 -75t164.5 -24q98 0 166.5 24t111 75t62 130t19.5 189v973h196v-871q0 -186 -28.5 -316.5t-94 -212.5t-171.5 -119.5t-261 -37.5q-153 0 -258.5 37.5t-170.5 119.5t-93.5 212.5t-28.5 316.5zM397 1641l186 299h195 l182 -299h-155l-127 198l-127 -198h-154z" />
<glyph unicode="&#xdc;" horiz-adv-x="1389" d="M141 653v871h197v-973q0 -110 19 -189t61 -130t109.5 -75t164.5 -24q98 0 166.5 24t111 75t62 130t19.5 189v973h196v-871q0 -186 -28.5 -316.5t-94 -212.5t-171.5 -119.5t-261 -37.5q-153 0 -258.5 37.5t-170.5 119.5t-93.5 212.5t-28.5 316.5zM348 1790q0 25 9.5 46.5 t25.5 37.5t37.5 25.5t46.5 9.5q24 0 45.5 -9.5t37.5 -25.5t25.5 -37.5t9.5 -46.5q0 -24 -9.5 -46t-25.5 -38t-37.5 -25.5t-45.5 -9.5q-25 0 -46.5 9.5t-37.5 25.5t-25.5 38t-9.5 46zM780 1790q0 25 9.5 46.5t25.5 37.5t37.5 25.5t46.5 9.5q24 0 46 -9.5t38 -25.5t25.5 -37.5 t9.5 -46.5q0 -24 -9.5 -46t-25.5 -38t-38 -25.5t-46 -9.5q-25 0 -46.5 9.5t-37.5 25.5t-25.5 38t-9.5 46z" />
<glyph unicode="&#xdd;" horiz-adv-x="1243" d="M0 1524h203l424 -717l428 717h188l-524 -899v-625h-197v625zM559 1641l101 299h194l-162 -299h-133z" />
<glyph unicode="&#xde;" horiz-adv-x="1217" d="M170 0v1524h190v-305q53 2 118 2h149q130 0 223.5 -34t154.5 -93.5t90 -140.5t29 -175q0 -101 -31.5 -187t-90.5 -148.5t-143.5 -98t-190.5 -35.5q-52 0 -90.5 1t-73 3.5t-68.5 7.5t-76 13v-334h-190zM360 492q72 -13 132 -18t112 -5q78 0 137 21t99.5 61t61 97t20.5 128 q0 72 -23 126t-65 90t-100.5 53.5t-129.5 17.5q-60 0 -117.5 -1.5t-126.5 -6.5v-563z" />
<glyph unicode="&#xdf;" d="M145 2v1096q0 218 107.5 322t314.5 104q113 0 194.5 -32t123.5 -79q43 -46 60.5 -97.5t17.5 -105.5q0 -55 -11 -102t-36.5 -88.5t-68 -79.5t-106.5 -76q36 -4 69.5 -14.5t62 -25t52 -31.5t40.5 -35q34 -36 54 -77.5t30.5 -83t13 -81t2.5 -70.5q0 -102 -25 -188 t-73.5 -148.5t-118.5 -97.5t-160 -35q-69 0 -123.5 15t-99.5 35l35 131q29 -13 64 -22t87 -9q63 0 106.5 22.5t70.5 65t39 103t12 135.5t-17.5 134.5t-60.5 100.5t-115 63.5t-180 24.5v142q136 11 206 81.5t70 182.5q0 106 -55 160.5t-162 54.5q-65 0 -110 -23t-74 -64.5 t-42 -99.5t-13 -127v-1081h-181z" />
<glyph unicode="&#xe0;" horiz-adv-x="1051" d="M82 260q0 65 17 122t55 99q22 25 51 44.5t70.5 34t96.5 25t130 17.5l241 23v37q0 58 -19 98t-52.5 65t-79.5 36t-100 11q-102 0 -181.5 -22.5t-130.5 -48.5l-20 143q23 11 57 24.5t80.5 25.5t105.5 20t132 8q103 0 176 -24t119.5 -70.5t68 -115.5t21.5 -159v-344 q0 -69 6 -144t35 -153l-181 -32q-5 8 -10 23t-10.5 32t-9.5 33.5t-7 27.5q-28 -29 -60 -51.5t-71.5 -38.5t-89 -24.5t-112.5 -8.5q-79 0 -140 21t-103 59.5t-63.5 91t-21.5 115.5zM260 268q0 -27 5 -45.5t13 -31.5t16.5 -21.5t16.5 -15.5q22 -20 58 -29.5t96 -9.5 q64 0 115.5 21t87.5 58t55.5 87.5t19.5 109.5v94l-223 -24q-61 -7 -109 -19.5t-81.5 -34.5t-51.5 -55.5t-18 -83.5zM323 1440h195l100 -299h-133z" />
<glyph unicode="&#xe1;" horiz-adv-x="1051" d="M82 260q0 65 17 122t55 99q22 25 51 44.5t70.5 34t96.5 25t130 17.5l241 23v37q0 58 -19 98t-52.5 65t-79.5 36t-100 11q-102 0 -181.5 -22.5t-130.5 -48.5l-20 143q23 11 57 24.5t80.5 25.5t105.5 20t132 8q103 0 176 -24t119.5 -70.5t68 -115.5t21.5 -159v-344 q0 -69 6 -144t35 -153l-181 -32q-5 8 -10 23t-10.5 32t-9.5 33.5t-7 27.5q-28 -29 -60 -51.5t-71.5 -38.5t-89 -24.5t-112.5 -8.5q-79 0 -140 21t-103 59.5t-63.5 91t-21.5 115.5zM260 268q0 -27 5 -45.5t13 -31.5t16.5 -21.5t16.5 -15.5q22 -20 58 -29.5t96 -9.5 q64 0 115.5 21t87.5 58t55.5 87.5t19.5 109.5v94l-223 -24q-61 -7 -109 -19.5t-81.5 -34.5t-51.5 -55.5t-18 -83.5zM469 1141l101 299h194l-162 -299h-133z" />
<glyph unicode="&#xe2;" horiz-adv-x="1051" d="M82 260q0 65 17 122t55 99q22 25 51 44.5t70.5 34t96.5 25t130 17.5l241 23v37q0 58 -19 98t-52.5 65t-79.5 36t-100 11q-102 0 -181.5 -22.5t-130.5 -48.5l-20 143q23 11 57 24.5t80.5 25.5t105.5 20t132 8q103 0 176 -24t119.5 -70.5t68 -115.5t21.5 -159v-344 q0 -69 6 -144t35 -153l-181 -32q-5 8 -10 23t-10.5 32t-9.5 33.5t-7 27.5q-28 -29 -60 -51.5t-71.5 -38.5t-89 -24.5t-112.5 -8.5q-79 0 -140 21t-103 59.5t-63.5 91t-21.5 115.5zM252 1141l186 299h195l182 -299h-155l-127 198l-127 -198h-154zM260 268q0 -27 5 -45.5 t13 -31.5t16.5 -21.5t16.5 -15.5q22 -20 58 -29.5t96 -9.5q64 0 115.5 21t87.5 58t55.5 87.5t19.5 109.5v94l-223 -24q-61 -7 -109 -19.5t-81.5 -34.5t-51.5 -55.5t-18 -83.5z" />
<glyph unicode="&#xe3;" horiz-adv-x="1051" d="M82 260q0 65 17 122t55 99q22 25 51 44.5t70.5 34t96.5 25t130 17.5l241 23v37q0 58 -19 98t-52.5 65t-79.5 36t-100 11q-102 0 -181.5 -22.5t-130.5 -48.5l-20 143q23 11 57 24.5t80.5 25.5t105.5 20t132 8q103 0 176 -24t119.5 -70.5t68 -115.5t21.5 -159v-344 q0 -69 6 -144t35 -153l-181 -32q-5 8 -10 23t-10.5 32t-9.5 33.5t-7 27.5q-28 -29 -60 -51.5t-71.5 -38.5t-89 -24.5t-112.5 -8.5q-79 0 -140 21t-103 59.5t-63.5 91t-21.5 115.5zM213 1161q2 69 16.5 119t37 82.5t52.5 47.5t64 15q25 0 45 -3.5t38 -10.5t35.5 -16t39.5 -21 q13 -7 29 -15.5t33.5 -16.5t35 -13.5t33.5 -5.5q34 0 50 28t20 74h112q-2 -69 -16.5 -119t-37 -82t-52.5 -47.5t-64 -15.5q-46 0 -83.5 15.5t-71.5 33.5q-13 7 -29.5 16.5t-34.5 17.5t-36 14t-34 6q-34 0 -50 -28t-19 -75h-113zM260 268q0 -27 5 -45.5t13 -31.5t16.5 -21.5 t16.5 -15.5q22 -20 58 -29.5t96 -9.5q64 0 115.5 21t87.5 58t55.5 87.5t19.5 109.5v94l-223 -24q-61 -7 -109 -19.5t-81.5 -34.5t-51.5 -55.5t-18 -83.5z" />
<glyph unicode="&#xe4;" horiz-adv-x="1051" d="M82 260q0 65 17 122t55 99q22 25 51 44.5t70.5 34t96.5 25t130 17.5l241 23v37q0 58 -19 98t-52.5 65t-79.5 36t-100 11q-102 0 -181.5 -22.5t-130.5 -48.5l-20 143q23 11 57 24.5t80.5 25.5t105.5 20t132 8q103 0 176 -24t119.5 -70.5t68 -115.5t21.5 -159v-344 q0 -69 6 -144t35 -153l-181 -32q-5 8 -10 23t-10.5 32t-9.5 33.5t-7 27.5q-28 -29 -60 -51.5t-71.5 -38.5t-89 -24.5t-112.5 -8.5q-79 0 -140 21t-103 59.5t-63.5 91t-21.5 115.5zM187 1290q0 25 9.5 46.5t25.5 37.5t37.5 25.5t46.5 9.5q24 0 45.5 -9.5t37.5 -25.5 t25.5 -37.5t9.5 -46.5q0 -24 -9.5 -46t-25.5 -38t-37.5 -25.5t-45.5 -9.5q-25 0 -46.5 9.5t-37.5 25.5t-25.5 38t-9.5 46zM260 268q0 -27 5 -45.5t13 -31.5t16.5 -21.5t16.5 -15.5q22 -20 58 -29.5t96 -9.5q64 0 115.5 21t87.5 58t55.5 87.5t19.5 109.5v94l-223 -24 q-61 -7 -109 -19.5t-81.5 -34.5t-51.5 -55.5t-18 -83.5zM619 1290q0 25 9.5 46.5t25.5 37.5t37.5 25.5t46.5 9.5q24 0 46 -9.5t38 -25.5t25.5 -37.5t9.5 -46.5q0 -24 -9.5 -46t-25.5 -38t-38 -25.5t-46 -9.5q-25 0 -46.5 9.5t-37.5 25.5t-25.5 38t-9.5 46z" />
<glyph unicode="&#xe5;" horiz-adv-x="1051" d="M82 260q0 65 17 122t55 99q22 25 51 44.5t70.5 34t96.5 25t130 17.5l241 23v37q0 58 -19 98t-52.5 65t-79.5 36t-100 11q-102 0 -181.5 -22.5t-130.5 -48.5l-20 143q23 11 57 24.5t80.5 25.5t105.5 20t132 8q103 0 176 -24t119.5 -70.5t68 -115.5t21.5 -159v-344 q0 -69 6 -144t35 -153l-181 -32q-5 8 -10 23t-10.5 32t-9.5 33.5t-7 27.5q-28 -29 -60 -51.5t-71.5 -38.5t-89 -24.5t-112.5 -8.5q-79 0 -140 21t-103 59.5t-63.5 91t-21.5 115.5zM260 268q0 -27 5 -45.5t13 -31.5t16.5 -21.5t16.5 -15.5q22 -20 58 -29.5t96 -9.5 q64 0 115.5 21t87.5 58t55.5 87.5t19.5 109.5v94l-223 -24q-61 -7 -109 -19.5t-81.5 -34.5t-51.5 -55.5t-18 -83.5zM315 1327q0 48 18 89.5t49.5 72.5t73 49t89.5 18t89.5 -18t72.5 -49t49 -72.5t18 -89.5t-18 -89.5t-49 -72.5t-72.5 -49t-89.5 -18t-89.5 18t-73 49 t-49.5 72.5t-18 89.5zM420 1327q0 -25 10 -47.5t27 -40t39.5 -27.5t48.5 -10q25 0 47.5 10t40 27.5t27.5 40t10 47.5t-10 48t-27.5 40t-40 27t-47.5 10q-26 0 -48.5 -10t-39.5 -27t-27 -40t-10 -48z" />
<glyph unicode="&#xe6;" horiz-adv-x="1692" d="M82 260q0 65 17 121t55 98q22 25 51 44.5t70.5 35t96.5 26t130 17.5l241 23v37q0 61 -19 101.5t-52.5 64.5t-79.5 34t-100 10q-102 0 -181.5 -22.5t-130.5 -48.5l-20 143q23 11 57 24.5t80.5 25.5t105.5 20t132 8q97 0 171 -21t119 -69q13 -13 22 -27.5t17 -30.5 q25 39 60 67t76 46t86.5 26.5t91.5 8.5q87 0 164.5 -23t135 -81t91 -156.5t33.5 -249.5v-63h-682q7 -92 35 -155.5t71 -102.5t97.5 -56.5t113.5 -17.5q39 0 72 2.5t63 8.5t58.5 15.5t58.5 22.5l47 -133q-32 -15 -65.5 -27t-73 -20.5t-87 -13.5t-106.5 -5q-56 0 -110.5 10 t-104 32.5t-92.5 58t-76 86.5q-48 -60 -96 -96t-99 -54.5t-104.5 -24.5t-111.5 -6q-79 0 -140 21t-103 59.5t-63.5 91t-21.5 115.5zM260 268q0 -27 5 -45.5t13 -31.5t16.5 -21.5t16.5 -15.5q22 -20 58 -29.5t96 -9.5q64 0 115.5 21t87.5 58t55.5 87.5t19.5 109.5v94 l-223 -24q-61 -7 -109 -19.5t-81.5 -34.5t-51.5 -55.5t-18 -83.5zM920 580h497q0 83 -16.5 142t-47 96.5t-73.5 55t-96 17.5q-108 0 -174 -66q-18 -18 -32.5 -41t-25.5 -52.5t-19.5 -66.5t-12.5 -85z" />
<glyph unicode="&#xe7;" horiz-adv-x="938" d="M98 500q0 137 41 236t107.5 162.5t152 93.5t174.5 30q96 0 180.5 -29.5t141.5 -79.5l-70 -125q-38 35 -99 59.5t-146 24.5q-63 0 -118.5 -22t-97.5 -67.5t-66 -115.5t-24 -167q0 -108 28.5 -180.5t73 -116t99 -62t107.5 -18.5q34 0 69.5 6t68.5 15.5t61 21t46 22.5 l58 -135q-50 -31 -127.5 -55t-165.5 -29q61 -67 61 -153q0 -35 -14 -67.5t-40 -58.5t-65 -41.5t-88 -15.5q-43 0 -85 9.5t-93 27.5l25 101q40 -13 65.5 -16t51.5 -3q13 0 30 5t31.5 16t24.5 30t10 47q0 26 -9 54t-38 71q-89 15 -156.5 59t-113 112.5t-68.5 158.5t-23 195z " />
<glyph unicode="&#xe8;" horiz-adv-x="1051" d="M98 494q0 144 35.5 244.5t96 163.5t140 91.5t167.5 28.5q87 0 164.5 -23t135 -81t91 -156.5t33.5 -249.5v-63h-682q7 -92 35 -155.5t71 -102.5t97.5 -56.5t113.5 -17.5q39 0 72 2.5t63 8.5t58.5 15.5t58.5 22.5l47 -133q-32 -15 -65.5 -27t-73 -20.5t-87 -13.5t-106.5 -5 q-58 0 -115 11t-109 35.5t-96 64.5t-76 98.5t-50.5 137.5t-18.5 180zM279 580h497q0 83 -16.5 142t-47 96.5t-73.5 55t-96 17.5q-108 0 -174 -66q-18 -18 -32.5 -41t-25.5 -52.5t-19.5 -66.5t-12.5 -85zM375 1440h195l100 -299h-133z" />
<glyph unicode="&#xe9;" horiz-adv-x="1051" d="M98 494q0 144 35.5 244.5t96 163.5t140 91.5t167.5 28.5q87 0 164.5 -23t135 -81t91 -156.5t33.5 -249.5v-63h-682q7 -92 35 -155.5t71 -102.5t97.5 -56.5t113.5 -17.5q39 0 72 2.5t63 8.5t58.5 15.5t58.5 22.5l47 -133q-32 -15 -65.5 -27t-73 -20.5t-87 -13.5t-106.5 -5 q-58 0 -115 11t-109 35.5t-96 64.5t-76 98.5t-50.5 137.5t-18.5 180zM279 580h497q0 83 -16.5 142t-47 96.5t-73.5 55t-96 17.5q-108 0 -174 -66q-18 -18 -32.5 -41t-25.5 -52.5t-19.5 -66.5t-12.5 -85zM469 1141l101 299h194l-162 -299h-133z" />
<glyph unicode="&#xea;" horiz-adv-x="1051" d="M98 494q0 144 35.5 244.5t96 163.5t140 91.5t167.5 28.5q87 0 164.5 -23t135 -81t91 -156.5t33.5 -249.5v-63h-682q7 -92 35 -155.5t71 -102.5t97.5 -56.5t113.5 -17.5q39 0 72 2.5t63 8.5t58.5 15.5t58.5 22.5l47 -133q-32 -15 -65.5 -27t-73 -20.5t-87 -13.5t-106.5 -5 q-58 0 -115 11t-109 35.5t-96 64.5t-76 98.5t-50.5 137.5t-18.5 180zM272 1141l186 299h195l182 -299h-155l-127 198l-127 -198h-154zM279 580h497q0 83 -16.5 142t-47 96.5t-73.5 55t-96 17.5q-108 0 -174 -66q-18 -18 -32.5 -41t-25.5 -52.5t-19.5 -66.5t-12.5 -85z" />
<glyph unicode="&#xeb;" horiz-adv-x="1051" d="M98 494q0 144 35.5 244.5t96 163.5t140 91.5t167.5 28.5q87 0 164.5 -23t135 -81t91 -156.5t33.5 -249.5v-63h-682q7 -92 35 -155.5t71 -102.5t97.5 -56.5t113.5 -17.5q39 0 72 2.5t63 8.5t58.5 15.5t58.5 22.5l47 -133q-32 -15 -65.5 -27t-73 -20.5t-87 -13.5t-106.5 -5 q-58 0 -115 11t-109 35.5t-96 64.5t-76 98.5t-50.5 137.5t-18.5 180zM221 1290q0 25 9.5 46.5t25.5 37.5t37.5 25.5t46.5 9.5q24 0 45.5 -9.5t37.5 -25.5t25.5 -37.5t9.5 -46.5q0 -24 -9.5 -46t-25.5 -38t-37.5 -25.5t-45.5 -9.5q-25 0 -46.5 9.5t-37.5 25.5t-25.5 38 t-9.5 46zM279 580h497q0 83 -16.5 142t-47 96.5t-73.5 55t-96 17.5q-108 0 -174 -66q-18 -18 -32.5 -41t-25.5 -52.5t-19.5 -66.5t-12.5 -85zM653 1290q0 25 9.5 46.5t25.5 37.5t37.5 25.5t46.5 9.5q24 0 46 -9.5t38 -25.5t25.5 -37.5t9.5 -46.5q0 -24 -9.5 -46t-25.5 -38 t-38 -25.5t-46 -9.5q-25 0 -46.5 9.5t-37.5 25.5t-25.5 38t-9.5 46z" />
<glyph unicode="&#xec;" horiz-adv-x="506" d="M59 1440h195l100 -299h-133zM172 238v751l180 6v-690q0 -72 4.5 -146t30.5 -147l-182 -32q-16 40 -24.5 100.5t-8.5 157.5z" />
<glyph unicode="&#xed;" horiz-adv-x="506" d="M172 238v751l180 6v-690q0 -72 4.5 -146t30.5 -147l-182 -32q-16 40 -24.5 100.5t-8.5 157.5zM194 1141l101 299h194l-162 -299h-133z" />
<glyph unicode="&#xee;" horiz-adv-x="506" d="M-12 1141l186 299h195l182 -299h-155l-127 198l-127 -198h-154zM172 238v751l180 6v-690q0 -72 4.5 -146t30.5 -147l-182 -32q-16 40 -24.5 100.5t-8.5 157.5z" />
<glyph unicode="&#xef;" horiz-adv-x="506" d="M-65 1290q0 25 9.5 46.5t25.5 37.5t37.5 25.5t46.5 9.5q24 0 45.5 -9.5t37.5 -25.5t25.5 -37.5t9.5 -46.5q0 -24 -9.5 -46t-25.5 -38t-37.5 -25.5t-45.5 -9.5q-25 0 -46.5 9.5t-37.5 25.5t-25.5 38t-9.5 46zM172 238v751l180 6v-690q0 -72 4.5 -146t30.5 -147l-182 -32 q-16 40 -24.5 100.5t-8.5 157.5zM367 1290q0 25 9.5 46.5t25.5 37.5t37.5 25.5t46.5 9.5q24 0 46 -9.5t38 -25.5t25.5 -37.5t9.5 -46.5q0 -24 -9.5 -46t-25.5 -38t-38 -25.5t-46 -9.5q-25 0 -46.5 9.5t-37.5 25.5t-25.5 38t-9.5 46z" />
<glyph unicode="&#xf0;" horiz-adv-x="1118" d="M98 477q0 140 36.5 237.5t96.5 158.5t136.5 88.5t156.5 27.5q77 0 143.5 -19t104.5 -67q-28 81 -90.5 174.5t-142.5 184.5l-144 -115l-61 78l137 108q-32 32 -65.5 61.5t-67.5 57.5l76 92q46 -31 87.5 -61t80.5 -62l145 117l61 -78l-133 -106l43 -43q102 -104 165 -205 t98 -200.5t47 -197t12 -194.5q0 -142 -37 -245.5t-100 -170.5t-146.5 -99t-177.5 -32t-177.5 27t-146.5 88t-100 158t-37 237zM283 477q0 -98 19.5 -168t55.5 -115t87 -66.5t114 -21.5q64 0 115 21.5t87 66.5t55.5 115t19.5 168q0 97 -19.5 167.5t-55.5 116.5t-87 67.5 t-115 21.5q-63 0 -114 -21.5t-87 -67.5t-55.5 -116.5t-19.5 -167.5z" />
<glyph unicode="&#xf1;" horiz-adv-x="1108" d="M145 0v989l181 4v-141q24 47 59 79.5t77 52.5t90.5 29t100.5 9q92 0 154.5 -26.5t100 -73.5t53.5 -111t16 -139v-359q0 -77 1.5 -150.5t22.5 -148.5l-184 -34q-12 42 -18 103.5t-6 160.5v364q0 61 -8 109.5t-30 82t-60 51t-99 17.5q-73 0 -124.5 -34t-83.5 -87.5 t-47 -119t-15 -127.5v-500h-181zM260 1161q2 69 16.5 119t37 82.5t52.5 47.5t64 15q25 0 45 -3.5t38 -10.5t35.5 -16t39.5 -21q13 -7 29 -15.5t33.5 -16.5t35 -13.5t33.5 -5.5q34 0 50 28t20 74h112q-2 -69 -16.5 -119t-37 -82t-52.5 -47.5t-64 -15.5q-46 0 -83.5 15.5 t-71.5 33.5q-13 7 -29.5 16.5t-34.5 17.5t-36 14t-34 6q-34 0 -50 -28t-19 -75h-113z" />
<glyph unicode="&#xf2;" horiz-adv-x="1118" d="M98 494q0 139 37 239t100.5 164.5t147 94.5t176.5 30q94 0 177.5 -30t146.5 -94.5t100 -164.5t37 -239q0 -140 -37 -240t-100 -163.5t-146.5 -93.5t-177.5 -30t-177.5 30t-146.5 93.5t-100 163.5t-37 240zM283 494q0 -98 19.5 -171t55.5 -121t87 -72t114 -24q64 0 115 24 t87 72t55.5 121t19.5 171q0 97 -19.5 170t-55.5 122t-87 73t-115 24q-63 0 -114 -24t-87 -73t-55.5 -122t-19.5 -170zM385 1440h195l100 -299h-133z" />
<glyph unicode="&#xf3;" horiz-adv-x="1118" d="M98 494q0 139 37 239t100.5 164.5t147 94.5t176.5 30q94 0 177.5 -30t146.5 -94.5t100 -164.5t37 -239q0 -140 -37 -240t-100 -163.5t-146.5 -93.5t-177.5 -30t-177.5 30t-146.5 93.5t-100 163.5t-37 240zM283 494q0 -98 19.5 -171t55.5 -121t87 -72t114 -24q64 0 115 24 t87 72t55.5 121t19.5 171q0 97 -19.5 170t-55.5 122t-87 73t-115 24q-63 0 -114 -24t-87 -73t-55.5 -122t-19.5 -170zM489 1141l101 299h194l-162 -299h-133z" />
<glyph unicode="&#xf4;" horiz-adv-x="1118" d="M98 494q0 139 37 239t100.5 164.5t147 94.5t176.5 30q94 0 177.5 -30t146.5 -94.5t100 -164.5t37 -239q0 -140 -37 -240t-100 -163.5t-146.5 -93.5t-177.5 -30t-177.5 30t-146.5 93.5t-100 163.5t-37 240zM283 494q0 -98 19.5 -171t55.5 -121t87 -72t114 -24q64 0 115 24 t87 72t55.5 121t19.5 171q0 97 -19.5 170t-55.5 122t-87 73t-115 24q-63 0 -114 -24t-87 -73t-55.5 -122t-19.5 -170zM291 1141l186 299h195l182 -299h-155l-127 198l-127 -198h-154z" />
<glyph unicode="&#xf5;" horiz-adv-x="1118" d="M98 494q0 139 37 239t100.5 164.5t147 94.5t176.5 30q94 0 177.5 -30t146.5 -94.5t100 -164.5t37 -239q0 -140 -37 -240t-100 -163.5t-146.5 -93.5t-177.5 -30t-177.5 30t-146.5 93.5t-100 163.5t-37 240zM256 1161q2 69 16.5 119t37 82.5t52.5 47.5t64 15q25 0 45 -3.5 t38 -10.5t35.5 -16t39.5 -21q13 -7 29 -15.5t33.5 -16.5t35 -13.5t33.5 -5.5q34 0 50 28t20 74h112q-2 -69 -16.5 -119t-37 -82t-52.5 -47.5t-64 -15.5q-46 0 -83.5 15.5t-71.5 33.5q-13 7 -29.5 16.5t-34.5 17.5t-36 14t-34 6q-34 0 -50 -28t-19 -75h-113zM283 494 q0 -98 19.5 -171t55.5 -121t87 -72t114 -24q64 0 115 24t87 72t55.5 121t19.5 171q0 97 -19.5 170t-55.5 122t-87 73t-115 24q-63 0 -114 -24t-87 -73t-55.5 -122t-19.5 -170z" />
<glyph unicode="&#xf6;" horiz-adv-x="1118" d="M98 494q0 139 37 239t100.5 164.5t147 94.5t176.5 30q94 0 177.5 -30t146.5 -94.5t100 -164.5t37 -239q0 -140 -37 -240t-100 -163.5t-146.5 -93.5t-177.5 -30t-177.5 30t-146.5 93.5t-100 163.5t-37 240zM240 1290q0 25 9.5 46.5t25.5 37.5t37.5 25.5t46.5 9.5 q24 0 45.5 -9.5t37.5 -25.5t25.5 -37.5t9.5 -46.5q0 -24 -9.5 -46t-25.5 -38t-37.5 -25.5t-45.5 -9.5q-25 0 -46.5 9.5t-37.5 25.5t-25.5 38t-9.5 46zM283 494q0 -98 19.5 -171t55.5 -121t87 -72t114 -24q64 0 115 24t87 72t55.5 121t19.5 171q0 97 -19.5 170t-55.5 122 t-87 73t-115 24q-63 0 -114 -24t-87 -73t-55.5 -122t-19.5 -170zM672 1290q0 25 9.5 46.5t25.5 37.5t37.5 25.5t46.5 9.5q24 0 46 -9.5t38 -25.5t25.5 -37.5t9.5 -46.5q0 -24 -9.5 -46t-25.5 -38t-38 -25.5t-46 -9.5q-25 0 -46.5 9.5t-37.5 25.5t-25.5 38t-9.5 46z" />
<glyph unicode="&#xf7;" d="M90 682v143h985v-143h-985zM463 369q0 25 9.5 47t25.5 38t38 25.5t48 9.5q25 0 47 -9.5t38.5 -25.5t26 -38t9.5 -47q0 -26 -9.5 -48t-26 -38t-38.5 -25.5t-47 -9.5q-26 0 -48 9.5t-38 25.5t-25.5 38t-9.5 48zM463 1139q0 25 9.5 47t25.5 38.5t38 26t48 9.5q25 0 47 -9.5 t38.5 -26t26 -38.5t9.5 -47q0 -26 -9.5 -48t-26 -38t-38.5 -25.5t-47 -9.5q-26 0 -48 9.5t-38 25.5t-25.5 38t-9.5 48z" />
<glyph unicode="&#xf8;" horiz-adv-x="1118" d="M98 494q0 139 37 239t100.5 164.5t147 94.5t176.5 30q45 0 87.5 -6.5t80.5 -20.5l66 146h129l-88 -201q84 -62 135 -171t51 -275q0 -140 -37 -240t-100 -163.5t-146.5 -93.5t-177.5 -30q-76 0 -145 19l-58 -127h-131l78 176q-46 29 -84 71.5t-65 99t-41.5 128 t-14.5 160.5zM283 494q0 -107 23 -183.5t65 -124.5l297 674q-23 13 -50.5 18t-58.5 5q-63 0 -114 -24t-87 -73t-55.5 -122t-19.5 -170zM471 121q40 -15 88 -15q64 0 115 24t87 72t55.5 121t19.5 171q0 96 -18.5 167.5t-53.5 120.5z" />
<glyph unicode="&#xf9;" horiz-adv-x="1135" d="M145 317v672l185 6v-614q0 -62 8 -110t29.5 -81.5t60 -51t98.5 -17.5q73 0 124.5 34.5t84 88t47.5 118.5t15 127v500l180 6v-682q0 -74 1.5 -148t22.5 -147l-186 -34q-9 27 -13.5 70t-4.5 83q-25 -47 -59.5 -79.5t-77 -52.5t-91 -29t-100.5 -9q-92 0 -154.5 26.5 t-100 73.5t-53.5 111t-16 139zM364 1440h195l100 -299h-133z" />
<glyph unicode="&#xfa;" horiz-adv-x="1135" d="M145 317v672l185 6v-614q0 -62 8 -110t29.5 -81.5t60 -51t98.5 -17.5q73 0 124.5 34.5t84 88t47.5 118.5t15 127v500l180 6v-682q0 -74 1.5 -148t22.5 -147l-186 -34q-9 27 -13.5 70t-4.5 83q-25 -47 -59.5 -79.5t-77 -52.5t-91 -29t-100.5 -9q-92 0 -154.5 26.5 t-100 73.5t-53.5 111t-16 139zM487 1141l101 299h194l-162 -299h-133z" />
<glyph unicode="&#xfb;" horiz-adv-x="1135" d="M145 317v672l185 6v-614q0 -62 8 -110t29.5 -81.5t60 -51t98.5 -17.5q73 0 124.5 34.5t84 88t47.5 118.5t15 127v500l180 6v-682q0 -74 1.5 -148t22.5 -147l-186 -34q-9 27 -13.5 70t-4.5 83q-25 -47 -59.5 -79.5t-77 -52.5t-91 -29t-100.5 -9q-92 0 -154.5 26.5 t-100 73.5t-53.5 111t-16 139zM272 1141l186 299h195l182 -299h-155l-127 198l-127 -198h-154z" />
<glyph unicode="&#xfc;" horiz-adv-x="1135" d="M145 317v672l185 6v-614q0 -62 8 -110t29.5 -81.5t60 -51t98.5 -17.5q73 0 124.5 34.5t84 88t47.5 118.5t15 127v500l180 6v-682q0 -74 1.5 -148t22.5 -147l-186 -34q-9 27 -13.5 70t-4.5 83q-25 -47 -59.5 -79.5t-77 -52.5t-91 -29t-100.5 -9q-92 0 -154.5 26.5 t-100 73.5t-53.5 111t-16 139zM232 1290q0 25 9.5 46.5t25.5 37.5t37.5 25.5t46.5 9.5q24 0 45.5 -9.5t37.5 -25.5t25.5 -37.5t9.5 -46.5q0 -24 -9.5 -46t-25.5 -38t-37.5 -25.5t-45.5 -9.5q-25 0 -46.5 9.5t-37.5 25.5t-25.5 38t-9.5 46zM664 1290q0 25 9.5 46.5t25.5 37.5 t37.5 25.5t46.5 9.5q24 0 46 -9.5t38 -25.5t25.5 -37.5t9.5 -46.5q0 -24 -9.5 -46t-25.5 -38t-38 -25.5t-46 -9.5q-25 0 -46.5 9.5t-37.5 25.5t-25.5 38t-9.5 46z" />
<glyph unicode="&#xfd;" horiz-adv-x="954" d="M-14 -360l34 139q22 -14 52.5 -23.5t77.5 -9.5q66 0 106 43.5t72 122.5l61 151l-389 926l199 6l282 -704l285 702l188 -4l-450 -1085q-22 -51 -38.5 -86.5t-30.5 -60.5t-26.5 -41t-25.5 -29q-43 -44 -98 -64t-121 -20q-23 0 -44 1.5t-42 5.5t-43 11t-49 19zM426 1141 l101 299h194l-162 -299h-133z" />
<glyph unicode="&#xfe;" horiz-adv-x="1139" d="M145 -401v1925l181 6v-649q31 35 62.5 61.5t70 44t85 26.5t107.5 9q73 0 143 -27t124.5 -87.5t88 -157.5t33.5 -238q0 -129 -32 -230.5t-88 -171t-132 -106.5t-165 -37q-45 0 -84.5 4.5t-75 14t-69.5 25.5t-68 40v-452h-181zM326 227q20 -24 44 -45.5t54 -37t67 -24.5 t84 -9q72 0 125 30t87.5 83t51.5 125.5t17 158.5q0 190 -62.5 276t-191.5 86q-59 0 -109 -23t-87.5 -66t-58.5 -105t-21 -139v-310z" />
<glyph unicode="&#xff;" horiz-adv-x="954" d="M-14 -360l34 139q22 -14 52.5 -23.5t77.5 -9.5q66 0 106 43.5t72 122.5l61 151l-389 926l199 6l282 -704l285 702l188 -4l-450 -1085q-22 -51 -38.5 -86.5t-30.5 -60.5t-26.5 -41t-25.5 -29q-43 -44 -98 -64t-121 -20q-23 0 -44 1.5t-42 5.5t-43 11t-49 19zM148 1290 q0 25 9.5 46.5t25.5 37.5t37.5 25.5t46.5 9.5q24 0 45.5 -9.5t37.5 -25.5t25.5 -37.5t9.5 -46.5q0 -24 -9.5 -46t-25.5 -38t-37.5 -25.5t-45.5 -9.5q-25 0 -46.5 9.5t-37.5 25.5t-25.5 38t-9.5 46zM580 1290q0 25 9.5 46.5t25.5 37.5t37.5 25.5t46.5 9.5q24 0 46 -9.5 t38 -25.5t25.5 -37.5t9.5 -46.5q0 -24 -9.5 -46t-25.5 -38t-38 -25.5t-46 -9.5q-25 0 -46.5 9.5t-37.5 25.5t-25.5 38t-9.5 46z" />
<glyph unicode="&#x152;" horiz-adv-x="2001" d="M119 762q0 139 25.5 250t70.5 196.5t106.5 146.5t134.5 100.5t154 58t164 18.5q48 0 99 -1.5t101.5 -3t96.5 -2.5t84 -1h752v-162h-656v-473h568v-164h-568v-563h699v-162h-779q-105 0 -207 -4t-190 -4q-84 0 -164.5 18.5t-153.5 58t-134.5 100.5t-106.5 146.5 t-70.5 196.5t-25.5 250zM336 762q0 -131 29 -243.5t84.5 -195t137 -129.5t187.5 -47q71 0 143 2.5t138 24.5v1178q-31 7 -61.5 12t-64 7.5t-71.5 3.5t-84 1q-106 0 -187.5 -46.5t-137 -129t-84.5 -195t-29 -243.5z" />
<glyph unicode="&#x153;" horiz-adv-x="1788" d="M98 494q0 139 37 239t100.5 164.5t147 94.5t176.5 30q55 0 106.5 -9.5t98.5 -31t87.5 -57t72.5 -86.5q27 48 65.5 82.5t84.5 57t97 33.5t103 11q87 0 164.5 -23t135 -81t91 -156.5t33.5 -249.5v-63h-682q7 -92 35 -155.5t71 -102.5t97.5 -56.5t113.5 -17.5q39 0 72 2.5 t63 8.5t58.5 15.5t58.5 22.5l47 -133q-32 -15 -65.5 -27t-73 -20.5t-87 -13.5t-106.5 -5q-54 0 -106.5 9.5t-101 31.5t-91 57.5t-75.5 88.5q-62 -97 -158 -142t-209 -45q-94 0 -177.5 30t-146.5 93.5t-100 163.5t-37 240zM283 494q0 -98 19.5 -171t55.5 -121t87 -72t114 -24 q64 0 115 24t87 72t55.5 121t19.5 171q0 97 -19.5 170t-55.5 122t-87 73t-115 24q-63 0 -114 -24t-87 -73t-55.5 -122t-19.5 -170zM1016 580h497q0 83 -16.5 142t-47 96.5t-73.5 55t-96 17.5q-108 0 -174 -66q-18 -18 -32.5 -41t-25.5 -52.5t-19.5 -66.5t-12.5 -85z" />
<glyph unicode="&#x178;" horiz-adv-x="1243" d="M0 1524h203l424 -717l428 717h188l-524 -899v-625h-197v625zM291 1790q0 25 9.5 46.5t25.5 37.5t37.5 25.5t46.5 9.5q24 0 45.5 -9.5t37.5 -25.5t25.5 -37.5t9.5 -46.5q0 -24 -9.5 -46t-25.5 -38t-37.5 -25.5t-45.5 -9.5q-25 0 -46.5 9.5t-37.5 25.5t-25.5 38t-9.5 46z M723 1790q0 25 9.5 46.5t25.5 37.5t37.5 25.5t46.5 9.5q24 0 46 -9.5t38 -25.5t25.5 -37.5t9.5 -46.5q0 -24 -9.5 -46t-25.5 -38t-38 -25.5t-46 -9.5q-25 0 -46.5 9.5t-37.5 25.5t-25.5 38t-9.5 46z" />
<glyph unicode="&#x2c6;" horiz-adv-x="739" d="M88 1141l186 299h195l182 -299h-155l-127 198l-127 -198h-154z" />
<glyph unicode="&#x2dc;" horiz-adv-x="739" d="M49 1161q2 69 16.5 119t37 82.5t52.5 47.5t64 15q25 0 45 -3.5t38 -10.5t35.5 -16t39.5 -21q13 -7 29 -15.5t33.5 -16.5t35 -13.5t33.5 -5.5q34 0 50 28t20 74h112q-2 -69 -16.5 -119t-37 -82t-52.5 -47.5t-64 -15.5q-46 0 -83.5 15.5t-71.5 33.5q-13 7 -29.5 16.5 t-34.5 17.5t-36 14t-34 6q-34 0 -50 -28t-19 -75h-113z" />
<glyph unicode="&#x2000;" horiz-adv-x="970" />
<glyph unicode="&#x2001;" horiz-adv-x="1940" />
<glyph unicode="&#x2002;" horiz-adv-x="970" />
<glyph unicode="&#x2003;" horiz-adv-x="1940" />
<glyph unicode="&#x2004;" horiz-adv-x="646" />
<glyph unicode="&#x2005;" horiz-adv-x="485" />
<glyph unicode="&#x2006;" horiz-adv-x="323" />
<glyph unicode="&#x2007;" horiz-adv-x="323" />
<glyph unicode="&#x2008;" horiz-adv-x="242" />
<glyph unicode="&#x2009;" horiz-adv-x="388" />
<glyph unicode="&#x200a;" horiz-adv-x="107" />
<glyph unicode="&#x2010;" horiz-adv-x="686" d="M92 414v172h502v-172h-502z" />
<glyph unicode="&#x2011;" horiz-adv-x="686" d="M92 414v172h502v-172h-502z" />
<glyph unicode="&#x2012;" horiz-adv-x="686" d="M92 414v172h502v-172h-502z" />
<glyph unicode="&#x2013;" horiz-adv-x="1024" d="M0 541v157h1024v-157h-1024z" />
<glyph unicode="&#x2014;" horiz-adv-x="2048" d="M0 541v157h2048v-157h-2048z" />
<glyph unicode="&#x2018;" horiz-adv-x="651" d="M188 1161q0 57 15 112.5t41 106.5t61 96t76 80l80 -71q-23 -26 -44 -54.5t-38.5 -61t-28.5 -68t-12 -74.5q29 0 55.5 -10.5t44.5 -28.5q37 -37 37 -98q0 -31 -10.5 -56t-29.5 -43t-44 -27.5t-53 -9.5q-29 0 -56 12t-48 37.5t-33.5 64.5t-12.5 93z" />
<glyph unicode="&#x2019;" horiz-adv-x="651" d="M176 1421q0 31 11 56t29.5 42.5t43.5 27t53 9.5t55 -12t48 -37.5t34 -64t13 -92.5q0 -57 -15 -112.5t-41 -106.5t-61 -96t-76 -81l-80 72q22 25 43.5 54t39 61.5t28 68t12.5 74.5q-61 0 -100 39q-37 37 -37 98z" />
<glyph unicode="&#x201a;" horiz-adv-x="651" d="M176 106q0 31 11 56t29.5 43t43.5 27.5t53 9.5t55 -12t48 -37.5t34 -64.5t13 -93q0 -57 -15 -112.5t-41 -106.5t-61 -96t-76 -80l-80 71q22 25 43.5 54t39 61.5t28 68t12.5 74.5q-29 0 -55 10.5t-45 28.5q-37 37 -37 98z" />
<glyph unicode="&#x201c;" horiz-adv-x="1079" d="M188 1161q0 57 15 112.5t41 106.5t61 96t76 80l80 -71q-23 -26 -44 -54.5t-38.5 -61t-28.5 -68t-12 -74.5q29 0 55.5 -10.5t44.5 -28.5q37 -37 37 -98q0 -31 -10.5 -56t-29.5 -43t-44 -27.5t-53 -9.5q-29 0 -56 12t-48 37.5t-33.5 64.5t-12.5 93zM616 1161q0 57 15 112.5 t41 106.5t61 96t76 80l80 -71q-23 -26 -44 -54.5t-38.5 -61t-28.5 -68t-12 -74.5q29 0 55.5 -10.5t44.5 -28.5q37 -37 37 -98q0 -31 -10.5 -56t-29.5 -43t-44 -27.5t-53 -9.5q-29 0 -56 12t-48 37.5t-33.5 64.5t-12.5 93z" />
<glyph unicode="&#x201d;" horiz-adv-x="1079" d="M176 1421q0 31 11 56t29.5 42.5t43.5 27t53 9.5t55 -12t48 -37.5t34 -64t13 -92.5q0 -57 -15 -112.5t-41 -106.5t-61 -96t-76 -81l-80 72q22 25 43.5 54t39 61.5t28 68t12.5 74.5q-61 0 -100 39q-37 37 -37 98zM604 1421q0 31 11 56t29.5 42.5t43.5 27t53 9.5t55 -12 t48 -37.5t34 -64t13 -92.5q0 -57 -15 -112.5t-41 -106.5t-61 -96t-76 -81l-80 72q22 25 43.5 54t39 61.5t28 68t12.5 74.5q-61 0 -100 39q-37 37 -37 98z" />
<glyph unicode="&#x201e;" horiz-adv-x="1079" d="M176 106q0 31 11 56t29.5 43t43.5 27.5t53 9.5t55 -12t48 -37.5t34 -64.5t13 -93q0 -57 -15 -112.5t-41 -106.5t-61 -96t-76 -80l-80 71q22 25 43.5 54t39 61.5t28 68t12.5 74.5q-29 0 -55 10.5t-45 28.5q-37 37 -37 98zM604 106q0 31 11 56t29.5 43t43.5 27.5t53 9.5 t55 -12t48 -37.5t34 -64.5t13 -93q0 -57 -15 -112.5t-41 -106.5t-61 -96t-76 -80l-80 71q22 25 43.5 54t39 61.5t28 68t12.5 74.5q-29 0 -55 10.5t-45 28.5q-37 37 -37 98z" />
<glyph unicode="&#x2022;" horiz-adv-x="868" d="M111 657q0 67 25.5 126t69.5 103t102.5 69.5t125.5 25.5t126 -25.5t103 -69.5t69.5 -103t25.5 -126t-25.5 -125.5t-69.5 -102.5t-103 -69.5t-126 -25.5t-125.5 25.5t-102.5 69.5t-69.5 102.5t-25.5 125.5z" />
<glyph unicode="&#x2026;" horiz-adv-x="2003" d="M180 104q0 28 11 53.5t29.5 44t43.5 29.5t53 11t53.5 -11t44 -29.5t29.5 -44t11 -53.5t-11 -53t-29.5 -43.5t-44 -29.5t-53.5 -11t-53 11t-43.5 29.5t-29.5 43.5t-11 53zM864 104q0 28 11 53.5t29.5 44t43.5 29.5t53 11t53.5 -11t44 -29.5t29.5 -44t11 -53.5t-11 -53 t-29.5 -43.5t-44 -29.5t-53.5 -11t-53 11t-43.5 29.5t-29.5 43.5t-11 53zM1546 104q0 28 11 53.5t29.5 44t43.5 29.5t53 11t53.5 -11t44 -29.5t29.5 -44t11 -53.5t-11 -53t-29.5 -43.5t-44 -29.5t-53.5 -11t-53 11t-43.5 29.5t-29.5 43.5t-11 53z" />
<glyph unicode="&#x202f;" horiz-adv-x="388" />
<glyph unicode="&#x2039;" horiz-adv-x="483" d="M49 502l219 475h166l-217 -475l217 -477h-166z" />
<glyph unicode="&#x203a;" horiz-adv-x="483" d="M49 25l217 477l-217 475h166l219 -475l-219 -477h-166z" />
<glyph unicode="&#x205f;" horiz-adv-x="485" />
<glyph unicode="&#x20ac;" d="M16 557l52 111h118q-2 21 -2 42v44v49t2 51h-170l52 111h133q18 147 70.5 253t128.5 174t169 100t193 32q71 0 129 -12t104.5 -31.5t82.5 -44.5t65 -50l-72 -133q-65 57 -134 85t-157 28q-67 0 -126.5 -21t-107.5 -68.5t-83 -124t-53 -187.5h538l-51 -111h-498 q-2 -23 -3 -47.5t-1 -52.5v-44t2 -42h416l-51 -111h-352q12 -87 35 -152t53 -112.5t65 -78t72.5 -49t75 -25.5t71.5 -7q91 0 160.5 28t126.5 66l66 -141q-32 -23 -71.5 -44.5t-88.5 -38t-108 -26.5t-130 -10q-223 0 -364 147.5t-178 442.5h-179z" />
<glyph unicode="&#x2122;" horiz-adv-x="1819" d="M29 1403v121h671v-121h-258v-731h-155v731h-258zM877 672v852h149l250 -430l250 430h149v-852h-149v583l-219 -374h-62l-219 376v-585h-149z" />
<glyph unicode="&#xe000;" horiz-adv-x="995" d="M0 0v995h995v-995h-995z" />
<glyph unicode="&#xfb01;" horiz-adv-x="1182" d="M57 850v139h144v221q0 86 24 147t65.5 99.5t98.5 56t123 17.5q46 0 93.5 -8.5t84.5 -22.5l-24 -135q-10 3 -37.5 9.5t-73.5 6.5q-91 0 -132.5 -46.5t-41.5 -139.5v-205h246v-139h-246v-850h-180v850h-144zM817 1348q0 25 9.5 47t25.5 38t38 25.5t48 9.5q25 0 47.5 -9.5 t38.5 -25.5t25.5 -38t9.5 -47q0 -26 -9.5 -48t-25.5 -38t-38.5 -25.5t-47.5 -9.5q-26 0 -48 9.5t-38 25.5t-25.5 38t-9.5 48zM848 238v751l180 6v-690q0 -72 4.5 -146t30.5 -147l-182 -32q-16 40 -24.5 100.5t-8.5 157.5z" />
<glyph unicode="&#xfb02;" horiz-adv-x="1176" d="M57 850v139h144v221q0 86 24 147t65.5 99.5t98.5 56t123 17.5q46 0 93.5 -8.5t84.5 -22.5l-24 -135q-10 3 -37.5 9.5t-73.5 6.5q-91 0 -132.5 -46.5t-41.5 -139.5v-205h246v-139h-246v-850h-180v850h-144zM850 238v1286l180 6v-1225q0 -72 4.5 -146t30.5 -147l-182 -32 q-16 40 -24.5 100.5t-8.5 157.5z" />
</font>
</defs>
</svg>
